<svg version="1.2" xmlns="http://www.w3.org/2000/svg" viewBox="0 0 790 680" width="790" height="680">
	<title>RB Logo - black no bg</title>
	<style>
		.s0 { opacity: .01;fill: #bbbab2 } 
		.s1 { opacity: .06;fill: #c3c2b9 } 
		.s2 { opacity: .31;fill: #292923 } 
		.s3 { opacity: .22;fill: #54554c } 
		.s4 { opacity: .04;fill: #a1a19c } 
		.s5 { opacity: 1;fill: #1c1c1b } 
		.s6 { opacity: .89;fill: #1d1d16 } 
		.s7 { opacity: .02;fill: #afada4 } 
		.s8 { opacity: .08;fill: #9f9c8d } 
		.s9 { opacity: .05;fill: #7e7d71 } 
		.s10 { opacity: .4;fill: #46463e } 
		.s11 { opacity: .04;fill: #c5c5b9 } 
		.s12 { opacity: .09;fill: #cac9bf } 
		.s13 { opacity: .18;fill: #737369 } 
		.s14 { opacity: .05;fill: #d7d3c7 } 
		.s15 { opacity: .05;fill: #a6a49a } 
		.s16 { opacity: .11;fill: #9d988f } 
		.s17 { opacity: .17;fill: #7e7c73 } 
		.s18 { opacity: .69;fill: #43403d } 
		.s19 { opacity: .06;fill: #bdbbaf } 
		.s20 { opacity: .07;fill: #c6c6ba } 
		.s21 { opacity: .09;fill: #79736f } 
		.s22 { opacity: .07;fill: #b6b5ad } 
		.s23 { opacity: 1;fill: #2d2a25 } 
		.s24 { opacity: .02;fill: #9d9896 } 
		.s25 { opacity: .04;fill: #838079 } 
		.s26 { opacity: .41;fill: #5a5954 } 
		.s27 { opacity: .07;fill: #92908c } 
		.s28 { opacity: .07;fill: #8b8782 } 
		.s29 { opacity: .13;fill: #9e9c96 } 
		.s30 { opacity: .05;fill: #8e8c86 } 
		.s31 { opacity: .99;fill: #1b1a16 } 
		.s32 { opacity: .82;fill: #292722 } 
		.s33 { opacity: .22;fill: #68655e } 
		.s34 { opacity: .05;fill: #c5c5c0 } 
		.s35 { opacity: .05;fill: #aaaa9f } 
		.s36 { opacity: .06;fill: #ccc7c3 } 
		.s37 { opacity: .05;fill: #c2c1b2 } 
		.s38 { opacity: .4;fill: #605f59 } 
		.s39 { opacity: .11;fill: #afada5 } 
		.s40 { opacity: .02;fill: #d7d7d5 } 
		.s41 { opacity: .02;fill: #d5d4d0 } 
		.s42 { opacity: .05;fill: #d7d6ce } 
		.s43 { opacity: .08;fill: #c0bfb6 } 
		.s44 { opacity: .91;fill: #27251e } 
		.s45 { opacity: .07;fill: #cdccbe } 
		.s46 { opacity: .51;fill: #46433c } 
		.s47 { opacity: .03;fill: #dbdbcb } 
		.s48 { opacity: .44;fill: #6d6b61 } 
		.s49 { opacity: .01;fill: #fefecc } 
		.s50 { opacity: .3;fill: #807e7a } 
		.s51 { opacity: .02;fill: #cac9c4 } 
		.s52 { opacity: .71;fill: #3d3c37 } 
		.s53 { opacity: .03;fill: #cbcbc6 } 
		.s54 { opacity: .67;fill: #3c3933 } 
		.s55 { opacity: .2;fill: #b9bab3 } 
		.s56 { opacity: .04;fill: #dadad1 } 
		.s57 { opacity: .02;fill: #d0d0c5 } 
		.s58 { opacity: .09;fill: #9e9c98 } 
		.s59 { opacity: .07;fill: #cbcbc0 } 
		.s60 { opacity: .24;fill: #7b7a73 } 
		.s61 { opacity: .75;fill: #484841 } 
		.s62 { opacity: .19;fill: #79786f } 
		.s63 { opacity: .13;fill: #cdcbbf } 
		.s64 { opacity: .34;fill: #5c5d55 } 
		.s65 { opacity: .96;fill: #1b1a16 } 
		.s66 { opacity: .04;fill: #c7c8be } 
		.s67 { opacity: .06;fill: #d6d4cc } 
		.s68 { opacity: .07;fill: #bbb6a9 } 
		.s69 { opacity: .73;fill: #44423b } 
		.s70 { opacity: .27;fill: #9a978c } 
		.s71 { opacity: .35;fill: #696963 } 
		.s72 { opacity: .13;fill: #918f8c } 
		.s73 { opacity: .02;fill: #e3e3d4 } 
		.s74 { opacity: .03;fill: #e2d7d5 } 
		.s75 { opacity: .09;fill: #e0dfd6 } 
		.s76 { opacity: .41;fill: #77746c } 
		.s77 { opacity: .05;fill: #bcbbb2 } 
		.s78 { opacity: .86;fill: #42403b } 
		.s79 { opacity: .06;fill: #e0dbd2 } 
		.s80 { opacity: .53;fill: #50524a } 
		.s81 { opacity: .02;fill: #d1d5d0 } 
		.s82 { opacity: .01;fill: #d2d3cf } 
		.s83 { opacity: .74;fill: #6e6b65 } 
		.s84 { opacity: .52;fill: #9b9892 } 
		.s85 { opacity: .05;fill: #dbdbcd } 
		.s86 { opacity: .19;fill: #bbb4af } 
		.s87 { opacity: .06;fill: #e1dfd9 } 
		.s88 { opacity: .02;fill: #dbdbcf } 
		.s89 { opacity: .45;fill: #5d5c55 } 
		.s90 { opacity: .02;fill: #e7e7e1 } 
		.s91 { opacity: .16;fill: #807f7c } 
		.s92 { opacity: .06;fill: #cecdc7 } 
		.s93 { opacity: .23;fill: #8c8a85 } 
		.s94 { opacity: .52;fill: #565350 } 
		.s95 { opacity: .12;fill: #bdbab1 } 
		.s96 { opacity: .11;fill: #bcbcb7 } 
		.s97 { opacity: .05;fill: #bcbbb3 } 
		.s98 { opacity: .12;fill: #a7a29f } 
		.s99 { opacity: .01;fill: #dfdfc9 } 
		.s100 { opacity: 1;fill: #1e1d1c } 
		.s101 { opacity: .01;fill: #dcdfca } 
		.s102 { opacity: .01;fill: #ffdede } 
		.s103 { opacity: .03;fill: #afada8 } 
		.s104 { opacity: .49;fill: #5d5d56 } 
		.s105 { opacity: .15;fill: #cdcac3 } 
		.s106 { opacity: .03;fill: #d0cec4 } 
		.s107 { opacity: .03;fill: #d4d3cd } 
		.s108 { opacity: .14;fill: #b1aca8 } 
		.s109 { opacity: .02;fill: #bdbcbc } 
		.s110 { opacity: .13;fill: #898980 } 
		.s111 { opacity: .15;fill: #babab7 } 
		.s112 { opacity: .28;fill: #62625a } 
		.s113 { opacity: .44;fill: #6d6867 } 
		.s114 { opacity: .07;fill: #bcbbb3 } 
		.s115 { opacity: .02;fill: #a49f99 } 
		.s116 { opacity: .02;fill: #c4c0b3 } 
		.s117 { opacity: .02;fill: #b2b2ad } 
		.s118 { opacity: .15;fill: #b4b0ab } 
		.s119 { opacity: .01;fill: #b7b7b6 } 
		.s120 { opacity: .08;fill: #c6c7bc } 
		.s121 { opacity: .11;fill: #b7b7ab } 
		.s122 { opacity: .01;fill: #bebbb9 } 
		.s123 { opacity: .17;fill: #8a897f } 
		.s124 { opacity: .02;fill: #d5d5be } 
		.s125 { opacity: .02;fill: #b6b6b0 } 
		.s126 { opacity: .4;fill: #6a6963 } 
		.s127 { opacity: .03;fill: #dddace } 
		.s128 { opacity: .07;fill: #d3d3cd } 
		.s129 { opacity: .08;fill: #d6d5ce } 
		.s130 { opacity: .09;fill: #8e8e89 } 
		.s131 { opacity: .05;fill: #e1dfd4 } 
		.s132 { opacity: .41;fill: #6b6963 } 
		.s133 { opacity: .38;fill: #4e4b45 } 
		.s134 { opacity: .05;fill: #bebdb9 } 
		.s135 { opacity: .06;fill: #bcb5a8 } 
		.s136 { opacity: .07;fill: #c5c4bd } 
		.s137 { opacity: .02;fill: #babab9 } 
		.s138 { opacity: .09;fill: #898781 } 
		.s139 { opacity: .01;fill: #cecbc0 } 
		.s140 { opacity: .02;fill: #cfd2c2 } 
		.s141 { opacity: .02;fill: #e2e2de } 
		.s142 { opacity: .11;fill: #cac9c3 } 
		.s143 { opacity: .05;fill: #c0bfbb } 
		.s144 { opacity: .18;fill: #a6a89c } 
		.s145 { opacity: .72;fill: #59554e } 
		.s146 { opacity: .12;fill: #cfcfc6 } 
		.s147 { opacity: .05;fill: #c6c5c5 } 
		.s148 { opacity: .98;fill: #191811 } 
		.s149 { opacity: .32;fill: #46473e } 
		.s150 { opacity: .07;fill: #cac9bd } 
		.s151 { opacity: .01;fill: #d5d5d0 } 
		.s152 { opacity: .62;fill: #484742 } 
		.s153 { opacity: .05;fill: #bebcb5 } 
		.s154 { opacity: .07;fill: #b9b7af } 
		.s155 { opacity: .01;fill: #ddddd8 } 
		.s156 { opacity: .1;fill: #76746d } 
		.s157 { opacity: .53;fill: #494943 } 
		.s158 { opacity: .05;fill: #ccccc1 } 
		.s159 { opacity: .11;fill: #8d8a84 } 
		.s160 { opacity: .01;fill: #fefec8 } 
		.s161 { opacity: .02;fill: #dededd } 
		.s162 { opacity: .06;fill: #bbb7b1 } 
		.s163 { opacity: .09;fill: #c2c1be } 
		.s164 { opacity: .97;fill: #2e2c25 } 
		.s165 { opacity: .53;fill: #605c59 } 
		.s166 { opacity: .05;fill: #c5c3c0 } 
		.s167 { opacity: .11;fill: #a9a79e } 
		.s168 { opacity: 0;fill: #fffefd } 
		.s169 { opacity: .16;fill: #717069 } 
		.s170 { opacity: .02;fill: #e0dfd2 } 
		.s171 { opacity: .11;fill: #b2b1a7 } 
		.s172 { opacity: .13;fill: #c7c3bb } 
		.s173 { opacity: .08;fill: #b7b5af } 
		.s174 { opacity: .99;fill: #1f1d15 } 
		.s175 { opacity: .02;fill: #cdbfbf } 
		.s176 { opacity: .14;fill: #7e7d75 } 
		.s177 { opacity: .09;fill: #d5cdc2 } 
		.s178 { opacity: .26;fill: #5d5a57 } 
		.s179 { opacity: .04;fill: #b9b8ae } 
		.s180 { opacity: .07;fill: #e8e8d7 } 
		.s181 { opacity: .08;fill: #bfbebb } 
		.s182 { opacity: .01;fill: #d6d1ca } 
		.s183 { opacity: .56;fill: #4f4b46 } 
		.s184 { opacity: .02;fill: #bfbfbd } 
		.s185 { opacity: .64;fill: #636157 } 
		.s186 { opacity: .02;fill: #dcdcd9 } 
		.s187 { opacity: .87;fill: #48453d } 
		.s188 { opacity: .02;fill: #eaebd7 } 
		.s189 { opacity: .05;fill: #d0d0ca } 
		.s190 { opacity: .07;fill: #9f9a95 } 
		.s191 { opacity: .17;fill: #d1c9c4 } 
		.s192 { opacity: .01;fill: #c9c8c3 } 
		.s193 { opacity: .02;fill: #cbc8be } 
		.s194 { opacity: .01;fill: #f1e0dc } 
		.s195 { opacity: .14;fill: #b3ada6 } 
		.s196 { opacity: .08;fill: #ccc9c3 } 
		.s197 { opacity: .41;fill: #55534e } 
		.s198 { opacity: .01;fill: #e5e5e1 } 
		.s199 { opacity: .88;fill: #4f4c44 } 
		.s200 { opacity: .29;fill: #86837d } 
		.s201 { opacity: .16;fill: #7f7e74 } 
		.s202 { opacity: .03;fill: #ceccc1 } 
		.s203 { opacity: .78;fill: #5d5a55 } 
		.s204 { opacity: .6;fill: #67645d } 
		.s205 { opacity: .01;fill: #feffda } 
		.s206 { opacity: .99;fill: #3a3731 } 
		.s207 { opacity: .04;fill: #dfdfd6 } 
		.s208 { opacity: .62;fill: #5a5751 } 
		.s209 { opacity: .02;fill: #f3ebe7 } 
		.s210 { opacity: .02;fill: #d7d7ce } 
		.s211 { opacity: .13;fill: #b7b8ae } 
		.s212 { opacity: .12;fill: #c6c3bc } 
		.s213 { opacity: .95;fill: #1d1a16 } 
		.s214 { opacity: .13;fill: #b1aea4 } 
		.s215 { opacity: .03;fill: #ddddda } 
		.s216 { opacity: .05;fill: #b1aea6 } 
		.s217 { opacity: .89;fill: #4c4944 } 
		.s218 { opacity: .19;fill: #bcbab2 } 
		.s219 { opacity: .02;fill: #dfd9d0 } 
		.s220 { opacity: .13;fill: #c1b5b3 } 
		.s221 { opacity: .04;fill: #dbdcdb } 
		.s222 { opacity: .38;fill: #626058 } 
		.s223 { opacity: .04;fill: #b6b7ac } 
		.s224 { opacity: .07;fill: #d5d5d2 } 
		.s225 { opacity: .03;fill: #c4c1bc } 
		.s226 { opacity: .04;fill: #dcdcd3 } 
		.s227 { opacity: .02;fill: #c6c4b7 } 
		.s228 { opacity: .16;fill: #cac8c5 } 
		.s229 { opacity: .73;fill: #4b493f } 
		.s230 { opacity: .13;fill: #d5d2cf } 
		.s231 { opacity: .45;fill: #4b4943 } 
		.s232 { opacity: .09;fill: #a19f95 } 
		.s233 { opacity: .24;fill: #888680 } 
		.s234 { opacity: .13;fill: #d6d4d1 } 
		.s235 { opacity: .01;fill: #e4e2db } 
		.s236 { opacity: .55;fill: #5c5a55 } 
		.s237 { opacity: .02;fill: #eedad8 } 
		.s238 { opacity: .03;fill: #d3d3c4 } 
		.s239 { opacity: .03;fill: #ecdcd4 } 
		.s240 { opacity: .09;fill: #9e9d9a } 
		.s241 { opacity: .12;fill: #a3a199 } 
		.s242 { opacity: .24;fill: #79776e } 
		.s243 { opacity: .02;fill: #d2d2c7 } 
		.s244 { opacity: .1;fill: #b6a9a1 } 
		.s245 { opacity: .06;fill: #d8d8cc } 
		.s246 { opacity: .16;fill: #575651 } 
		.s247 { opacity: .07;fill: #b6b6ac } 
		.s248 { opacity: .98;fill: #1d1c17 } 
		.s249 { opacity: .07;fill: #b0adab } 
		.s250 { opacity: .32;fill: #b9b6af } 
		.s251 { opacity: .02;fill: #d5d4ca } 
		.s252 { opacity: .01;fill: #cfcfc9 } 
		.s253 { opacity: .06;fill: #ddddd5 } 
		.s254 { opacity: .02;fill: #dbdbc8 } 
		.s255 { opacity: .07;fill: #d0cfce } 
		.s256 { opacity: .04;fill: #d6d6c9 } 
		.s257 { opacity: .14;fill: #ccccc2 } 
		.s258 { opacity: .01;fill: #f0f0ed } 
		.s259 { opacity: .04;fill: #d5d4d2 } 
		.s260 { opacity: .05;fill: #cbc8bf } 
		.s261 { opacity: .97;fill: #1b1a15 } 
		.s262 { opacity: .09;fill: #cacab9 } 
		.s263 { opacity: .54;fill: #57564f } 
		.s264 { opacity: .02;fill: #d0d0c4 } 
		.s265 { opacity: .07;fill: #b8b7b2 } 
		.s266 { opacity: .03;fill: #d5d5c8 } 
		.s267 { opacity: .07;fill: #dadac8 } 
		.s268 { opacity: .53;fill: #44433c } 
		.s269 { opacity: .59;fill: #55554c } 
		.s270 { opacity: .01;fill: #d8c4c4 } 
		.s271 { opacity: .73;fill: #2e2d25 } 
		.s272 { opacity: .04;fill: #c4c4bc } 
		.s273 { opacity: .07;fill: #a5a49a } 
		.s274 { opacity: .14;fill: #626058 } 
		.s275 { opacity: .02;fill: #e5e0d7 } 
		.s276 { opacity: .07;fill: #bebdb3 } 
		.s277 { opacity: .02;fill: #e6e6e0 } 
		.s278 { opacity: .01;fill: #dbd8c8 } 
		.s279 { opacity: .74;fill: #000000 } 
		.s280 { opacity: .84;fill: #000000 } 
		.s281 { opacity: .85;fill: #000000 } 
		.s282 { opacity: .87;fill: #000000 } 
		.s283 { opacity: .81;fill: #000000 } 
		.s284 { opacity: .8;fill: #000000 } 
		.s285 { opacity: .78;fill: #000000 } 
		.s286 { opacity: .86;fill: #000000 } 
		.s287 { opacity: .79;fill: #000000 } 
		.s288 { opacity: .51;fill: #000000 } 
		.s289 { opacity: .53;fill: #000000 } 
		.s290 { opacity: .54;fill: #000000 } 
		.s291 { opacity: .62;fill: #000000 } 
		.s292 { opacity: .58;fill: #000000 } 
		.s293 { opacity: .6;fill: #000000 } 
		.s294 { opacity: .55;fill: #000000 } 
	</style>
	<g>
		<path fill-rule="evenodd" class="s0" d="m233.6 24.5q-4.2 0-8.5 0 0.2-0.8 0.8-1.2 1.5-0.2 3.1-0.4 2.7-0.1 4.6 1.6z"/>
	</g>
	<g>
		<path fill-rule="evenodd" class="s1" d="m441.6 24.5q-88.6 0-177.3 0-5 0-10 0 0.5-0.9 1.5-1.2 46.5-0.2 92.9-0.4 46.9 0 92.9 1.6z"/>
	</g>
	<g>
		<path fill-rule="evenodd" class="s2" d="m222.8 24.5q1.2 0 2.3 0 4.3 0 8.5 0 10.3 0 20.7 0 5 0 10 0 88.1 0.9 176.6 1.1 2.5 0.2 4.6 1.2-71-1.1-142.1-0.8-40 0.1-79.8 0.8 0 1.9 0 3.8 8.4 0.7 16.9 0.8 0 1.1 0 2.3-0.4 0-0.8 0-1.9 0-3.8 0-2.9-2.2-6.9-1.6-3.7 0.7-6.2-1.5 0-3.1 0-6.1z"/>
	</g>
	<g>
		<path fill-rule="evenodd" class="s3" d="m264.3 24.5q88.7 0 177.3 0 2.7 0 5.4 0 4.1 2.2 9.2 1.5 1.6 0 3.1 0 2 2.1 5.4 1.5 0.4 0 0.7 0 0 1.2 0 2.3-9.5-3.3-19.9-3-2.1-1-4.6-1.2-88.5-0.2-176.6-1.1z"/>
	</g>
	<g>
		<path fill-rule="evenodd" class="s4" d="m447 24.5q4.3-0.2 8.5 0.3 0.6 0.5 0.7 1.2-5.1 0.7-9.2-1.5z"/>
	</g>
	<g>
		<path fill-rule="evenodd" class="s5" d="m303.4 26q-2.8 0.9-6.1 1.1 2.6 1.2 5.4 1.2 0.6 4.3 0.7 8.4-2.2 1.1-3.8 3.1-1.4 3.5-3.8 6.2-2.4 2.6-3.5 6.1-0.6 2.3-0.4 4.6-0.7 0.1-1.1 0.8-0.2 4.6-1.2 9.2-1.5 73.3 0 146.6 8.9 0.6 17.7 1.9 9 3.5 18.4 5.8 3.7 1.9 7.7 3.8 5.7 3.5 11.5 7 1.1 3.2 4.6 3-0.2 1.2 0.4 2.3 10.1 8.6 18.8 18.5 3.8 5.5 8.1 10.7 2 2.6 5 3.8 0.7 2.3 3 3.1-0.1 3.5 3.1 4.6 0 1.6 0 3.1 3.6 5.4 6.9 11.1-1.6 1.6 0.4 2.7 0.4-0.8 0.8-1.5 2.6 1.6 3.4 4.6 1 1 2.3 0.7-0.5 3.3 2.3 4.7 1.6 0 1.6 1.5 1.4 4 4.6 6.9 1.4 0.3 2.3 1.5 3.8 6.2 7.6 12.3 2.2 1.9 4.6 3.1 0.1 4.8 4.7 6.1-0.4 2.1 0.7 3.9 3.5 4 6.9 7.6 1.6 3.5 3.1 7 1.2-0.2 2.3 0.3 1.4 3.2 4.6 4.3 0.4 4.2 4.6 4.6 1.6 0 1.6 1.5 2.3 4 6.9 5 4.2 0.6 8.4 0.4 0.4 3.9-3.1 5.4-14.8 5.1-30.7 3.4-4.8-2.6-10-4.2-6.9-2.8-10.7-9.2-1.6-4.2-4.2-7.7-1.6-1.2-3.5-1.5-3.7-6.1-8.4-11.6-0.8-1.5-1.6-3-3.7-7.9-8.4-15.4-1-1-2.3-0.7-4.1-5.1-6.9-10.8-0.5-3-3.1-4.6-8.1-11.2-14.6-23.8-1.2-1.6-3-1.5-1.1-2.6-1.6-5.4-3-5.3-6.1-10.8-1.6-2.9-4.6-3.8-2.8-2.4-3.9-6.1-2.6-3.1-6.1-4.7 0-5.2-4.6-7.6-1.6-0.8-3.1-1.6-0.9-1.9-2.3-3.8-9.3-9.8-21.5-15.7-5.6-2.4-11.5-3.5-1.2-2-3.8-1.5-0.2 71.8 0.3 143.5 0.3 1.5 1.2 2.3-0.2 4.7 0.4 9.3 1.2 4 1.9 8.4 1 2.8 3.1 4.6 0.7 0 1.5 0 0.5 4.4 4.6 6.1 0.3 2.5 2.3 3.9 0 1.7 1.5 2.7-3.3 0.1-3 3.4-13.7 0.2-27.3 1.6-3.1-1.3-6.5-1.6-10.4 0.8-20.7 1.6-5.8-0.6-2.3-5-0.8-0.2-1.6-0.4-8.6 4-17.6 2.3 4.4 0.6 7.6-1.5 4 0.3 7.7-0.8 4.3-2.5 8.5-5 3.6-4.9 6.1-10.4 1.4-4.1 1.5-8.4 1.9-1.4 2-3.8 0.5-3.1 0.3-6.2 0.8-0.1 1.2-0.8 0.6-60.2 0.4-120.5 0.7 0.1 1.1 0.8 0.4 5.7 0.8 11.5 2.2-15.6 2.7-31.5-0.3-6.3-0.8-12.7-0.1-4.6 1.6-8.8-0.7-4-1.6-8 1.4-45.9 0.4-91.8-1.7-12.1-2.3-24.6-0.5-1.4-1.9-1.5 0.4-4.6-1.6-8.4 0.4-1.9-0.7-3.1 0-0.4 0-0.8-0.9-12.4-6.5-23.8-4.8-6.7-12.7-8.4 0-1.2 0-2.3-8.5-0.1-16.9-0.8 0-1.9 0-3.8 39.8-0.7 79.8-0.8z"/>
	</g>
	<g>
		<path fill-rule="evenodd" class="s6" d="m303.4 26q71.1-0.3 142.1 0.8 10.4-0.3 19.9 3 4 0 7.7 1.6 1.4-0.1 2.3-0.8 0.8 0 1.6 0-0.2 1.5 0.7 2.7 3 1.2 6.2 1.1 0.3 0 0.7 0 2.6 2.9 6.2 4.6 2.4 1.7 5.3 1.6 2 3.1 4.7 5.4-2.2-1.5-4.3 0-0.5-1.3 0.4-2.3-1.3-1.3-1.9 0.7-2.4-2.3-4.6-4.6-0.8 2.8-2.3 0-3.8 4.1-8.1 0.4 1.6-1.5 0-3.1-2.6-0.2-5-1.1-2 1.5-3.4-0.8-4.6 1.9-9.6 2.3-1.1 0.5-1.6 1.5-2.2-1.5-4.2 0-1.7-0.9-3.8-0.7-3.8 0.3-6.9-1.6-1.1 0.1-1.6 0.8-0.3 0-0.7 0 0-1.1 0-2.3-5.3 0.3-10-1.5-1.5 0-3.1 0-1.5-1.5-3.8-1.9-57.2-1-114.4 0.3-3.1 0.8-6.2 1.6-0.4 0.8-0.7 1.5 0 1.5-1.6 1.5-0.1-4.1-0.7-8.4-2.8 0-5.4-1.2 3.3-0.2 6.1-1.1z"/>
	</g>
	<g>
		<path fill-rule="evenodd" class="s7" d="m459.3 26q2.3-0.2 4.6 0.4 0.6 0.4 0.8 1.1-3.4 0.6-5.4-1.5z"/>
	</g>
	<g>
		<path fill-rule="evenodd" class="s8" d="m222.8 24.5q0 3 0 6.1-1.4-1-1.5-3.1 0.1-2.1 1.5-3z"/>
	</g>
	<g>
		<path fill-rule="evenodd" class="s9" d="m465.4 27.5q2.8-0.3 5.4 0.8 2.9 0.5 4.6 2.3-0.9 0.7-2.3 0.8-3.7-1.6-7.7-1.6 0-1.1 0-2.3z"/>
	</g>
	<g>
		<path fill-rule="evenodd" class="s10" d="m430.1 33.7q-3.4 0-6.9 0-0.4 0-0.8 0-26.2-1.6-53.3-1.6-26.7 0.4-53.4 0.8-5.3 1.5-10.7 2.3 0.3-0.7 0.7-1.5 3.1-0.8 6.2-1.6 57.2-1.3 114.4-0.3 2.3 0.4 3.8 1.9z"/>
	</g>
	<g>
		<path fill-rule="evenodd" class="s11" d="m229 32.1q4-0.6 6.9 1.6-3.1 0.2-6.2-0.4-0.6-0.5-0.7-1.2z"/>
	</g>
	<g>
		<path fill-rule="evenodd" class="s12" d="m422.4 33.7q-52.9-0.2-105.9 0.4-9.8 2.3-16.9 9.6-2.9 5.5-5.4 10.7-0.1-4.4 1.6-8.4 2.4-2.7 3.8-6.2 1.6-2 3.8-3.1 1.6 0 1.6-1.5 5.4-0.8 10.7-2.3 26.7-0.4 53.4-0.8 27.1 0 53.3 1.6z"/>
	</g>
	<g>
		<path fill-rule="evenodd" class="s13" d="m477 30.6q3.3 0.1 6.1 1.9 0.9 0.8 0.8 1.9-3.2 0.1-6.2-1.1-0.9-1.2-0.7-2.7z"/>
	</g>
	<g>
		<path fill-rule="evenodd" class="s14" d="m423.2 33.7q3.5 0 6.9 0 1.6 0 3.1 0 0 1.1 0 2.3-4.1 0.1-8.1-0.8-1.6-0.2-1.9-1.5z"/>
	</g>
	<g>
		<path fill-rule="evenodd" class="s15" d="m433.2 33.7q4.7 1.8 10 1.5 0 1.2 0 2.3-0.1 0.6-0.8 0.8-4.7-0.8-9.2-2.3 0-1.2 0-2.3z"/>
	</g>
	<g>
		<path fill-rule="evenodd" class="s16" d="m452.4 38.3q0 1.1 0 2.3-4.6-0.9-8.5-3.1 0.5-0.7 1.6-0.8 3.1 1.9 6.9 1.6z"/>
	</g>
	<g>
		<path fill-rule="evenodd" class="s17" d="m484.6 34.4q6.9 1.2 11.5 6.2-2.9 0.1-5.3-1.6-3.6-1.7-6.2-4.6z"/>
	</g>
	<g>
		<path fill-rule="evenodd" class="s18" d="m452.4 38.3q2.1-0.2 3.8 0.7 2.8 0.5 5.4 1.6 0 1.9 1.5 3.1-1.5 0-3 0-2.7-4-7.7-3.1 0-1.2 0-2.3z"/>
	</g>
	<g>
		<path fill-rule="evenodd" class="s19" d="m452.4 40.6q5-0.9 7.7 3.1-3.5-0.9-6.9-2-0.7-0.4-0.8-1.1z"/>
	</g>
	<g>
		<path fill-rule="evenodd" class="s20" d="m460.1 43.7q1.5 0 3 0 0 0.7 0 1.5-2.2 0.4-3-1.5z"/>
	</g>
	<g>
		<path fill-rule="evenodd" class="s21" d="m496.1 40.6q5.6 1.3 8.5 6.1-2-0.1-3.8-0.7-2.7-2.3-4.7-5.4z"/>
	</g>
	<g>
		<path fill-rule="evenodd" class="s22" d="m463.1 45.2q3.2 0.1 6.2 0.8 0 1.1 0 2.3 3.4 1.8 6.9 3.8 1.3 0.9 1.5 2.3-1.2 0.2-2.3-0.4-6.4-4.1-12.3-8.8z"/>
	</g>
	<g>
		<path fill-rule="evenodd" class="s23" d="m487.7 62.8q-4.2-3.4-8.4-6.9-1.6 0-1.6-1.5-0.2-1.4-1.5-2.3-3.5-2-6.9-3.8 0-1.2 0-2.3-3-0.7-6.2-0.8 0-0.8 0-1.5 3.8 0.9 7.7 1.5 0-1.2 0-2.3 1.4-0.3 2.3 0.8-1.1 1.5-2.3 3 2.1 0.9 4.2 1.6 1.6-4.6 3.1 0 1.3-1 2.7-1.6 0.3 4 1.5 8.5 1.4 3 4.6 3.8 1 1.8 0.8 3.8z"/>
	</g>
	<g>
		<path fill-rule="evenodd" class="s24" d="m504.6 46.7q6.4 2.2 9.2 8.5-3.9-2.2-6.9-5.8-1.1-0.5-2.3-0.4 0-1.1 0-2.3z"/>
	</g>
	<g>
		<path fill-rule="evenodd" class="s25" d="m239.7 33.7q0.4 0 0.8 0 7.9 1.7 12.7 8.4 5.6 11.4 6.5 23.8-1.2 0-2.3 0-0.2-12.8-6.9-23.8-4.9-5-10.8-8.4z"/>
	</g>
	<g>
		<path fill-rule="evenodd" class="s26" d="m295.8 46q-1.7 4-1.6 8.4-1.6 0.7-2.3 2.3-0.2-2.3 0.4-4.6 1.1-3.5 3.5-6.1z"/>
	</g>
	<g>
		<path fill-rule="evenodd" class="s27" d="m513.8 55.2q2.2 1.7 3.1 4.6-3.3-1.1-3.1-4.6z"/>
	</g>
	<g>
		<path fill-rule="evenodd" class="s28" d="m479.3 55.9q4.2 3.5 8.4 6.9 3 4.2 3.8 9.3-5.6-8.4-12.2-16.2z"/>
	</g>
	<g>
		<path fill-rule="evenodd" class="s29" d="m516.9 59.8q2.2 1 3.8 3 2.9 4.3 5.8 8.5 1.8 2.8 1.9 6.1-1.9-0.8-1.5-3-1.2 0-2.3 0-1.4-7.2-7.3-11.6-0.6-1.4-0.4-3z"/>
	</g>
	<g>
		<path fill-rule="evenodd" class="s30" d="m491.5 72.1q2.1 0.9 3.1 3 1.5 1.7 0 3.1-2.2-2.6-3.1-6.1z"/>
	</g>
	<g>
		<path fill-rule="evenodd" class="s31" d="m262 78.2q1.4 0.1 1.9 1.5 0.6 12.5 2.3 24.6 1 45.9-0.4 91.8 0.9 4 1.6 8-1.7 4.2-1.6 8.8 0.5 6.4 0.8 12.7-0.5 15.9-2.7 31.5-0.4-5.8-0.8-11.5-0.4-0.7-1.1-0.8 0-83.3 0-166.6z"/>
	</g>
	<g>
		<path fill-rule="evenodd" class="s32" d="m260.4 69.8q2 3.8 1.6 8.4 0 83.3 0 166.6 0.2 60.3-0.4 120.5-0.4 0.7-1.2 0.8 0-2.7 0-5.4 1.6-145.3 0-290.9z"/>
	</g>
	<g>
		<path fill-rule="evenodd" class="s33" d="m524.6 74.4q1.1 0 2.3 0-0.4 2.2 1.5 3-0.4 2.3 1.5 3.1 0 0.8 0 1.5-0.4 2.3 1.6 3.1 0 0.8 0 1.5-0.6 3 1.5 4.7 0 0.7 0 1.5 0 1.9 0 3.8-0.4 0-0.8 0-2.1-11.7-7.6-22.2z"/>
	</g>
	<g>
		<path fill-rule="evenodd" class="s34" d="m528.4 77.4q1.9 0.8 1.5 3.1-1.9-0.8-1.5-3.1z"/>
	</g>
	<g>
		<path fill-rule="evenodd" class="s35" d="m494.6 79.7q1.2 0 2.3 0 0.9 4.6 3.1 8.5 0 3.1 0 6.1-1.3-0.1-1.5-1.5-2.1-6.6-3.9-13.1z"/>
	</g>
	<g>
		<path fill-rule="evenodd" class="s36" d="m529.9 82q2 0.8 1.6 3.1-2-0.8-1.6-3.1z"/>
	</g>
	<g>
		<path fill-rule="evenodd" class="s37" d="m531.5 86.6q2 1.7 1.5 4.7-2.1-1.7-1.5-4.7z"/>
	</g>
	<g>
		<path fill-rule="evenodd" class="s38" d="m291.9 56.7q-1.1 36-0.7 72.2 0 10.3 0 20.7 0 31.5 0 63 6.1 0 12.2 0 0.8 0 1.6 0 3.9 4 10 3 0.3 0 0.7 0 1.2 2.1 3.9 1.6 1.6 2 4.6 1.5 0.3 1.5 1.5 2.3-9.4-2.3-18.4-5.8-8.8-1.3-17.7-1.9-1.5-73.3 0-146.6 1-4.6 1.2-9.2 0.4-0.7 1.1-0.8z"/>
	</g>
	<g>
		<path fill-rule="evenodd" class="s39" d="m533 92.8q2.2 2.9 1.5 6.9-1.9-0.8-1.5-3.1 0-1.9 0-3.8z"/>
	</g>
	<g>
		<path fill-rule="evenodd" class="s40" d="m294.2 54.4q0.5 3.7-1.1 6.9-0.6 33.8-0.4 67.6-0.8 0-1.5 0-0.4-36.2 0.7-72.2 0.7-1.6 2.3-2.3z"/>
	</g>
	<g>
		<path fill-rule="evenodd" class="s41" d="m500 95.9q2.3 14.1 1.5 29.1-0.7 0-1.5 0 0-14.6 0-29.1z"/>
	</g>
	<g>
		<path fill-rule="evenodd" class="s42" d="m534.5 102.8q0.7 0.1 1.2 0.7 0.2 4.8 0.4 9.6 0 5.3-1.6 9.6 0-9.9 0-19.9z"/>
	</g>
	<g>
		<path fill-rule="evenodd" class="s43" d="m356.4 108.9q0.2 3.5-3.1 4.6-0.1-3.5 3.1-4.6z"/>
	</g>
	<g>
		<path fill-rule="evenodd" class="s44" d="m356.4 108.9q7.9-0.3 6.2 7.7-0.8 0-1.6 0-1.1-0.1-1.9 0.8-2.5 7.5-6.1 14.5-0.8 4-2 7.7-1.7 3.6-3.8 6.9 2.2-3.3-1.5-4.6-1.2 4.9-3.1 9.2 0-2.6 0-5.3 4.6-16.4 10.7-32.3 3.3-1.1 3.1-4.6z"/>
	</g>
	<g>
		<path fill-rule="evenodd" class="s45" d="m362.6 116.6q1.7-8-6.2-7.7 1-1.4 3.1-1.5 5.1 0.1 4.6 5.4-0.1 2.4-1.5 3.8z"/>
	</g>
	<g>
		<path fill-rule="evenodd" class="s46" d="m532.2 96.6q0.4 0 0.8 0-0.4 2.3 1.5 3.1 0 1.5 0 3.1 0 10 0 19.9 0 0.8 0 1.6-1.8 2.5-2.3 6.1-1.1 3.4-0.7 6.9-0.8 0-1.6 0 4.4-20.1 2.3-40.7z"/>
	</g>
	<g>
		<path fill-rule="evenodd" class="s47" d="m361 116.6q0.8 0 1.6 0 0.4 2.3-1.6 3.1 0-1.6 0-3.1z"/>
	</g>
	<g>
		<path fill-rule="evenodd" class="s48" d="m361 116.6q0 1.5 0 3.1-1.8 0.5-2.7 2.3-2.1 5.7-3.8 11.5-1.4 3.3-3.5 6.1 1.2-3.7 2-7.7 3.6-7 6.1-14.5 0.8-0.9 1.9-0.8z"/>
	</g>
	<g>
		<path fill-rule="evenodd" class="s49" d="m291.2 128.9q0.7 0 1.5 0 0 10.3 0 20.7-0.8 0-1.5 0 0-10.4 0-20.7z"/>
	</g>
	<g>
		<path fill-rule="evenodd" class="s50" d="m500 125q0.8 0 1.5 0 0.2 3.9-0.4 7.7-0.4 0.7-1.1 0.8 0-1.9 0-3.9 0-2.3 0-4.6z"/>
	</g>
	<g>
		<path fill-rule="evenodd" class="s51" d="m534.5 124.3q0.2 3.8-0.3 7.6-0.9 3.1-2.7 5.4-0.4-3.5 0.7-6.9 0.5-3.6 2.3-6.1z"/>
	</g>
	<g>
		<path fill-rule="evenodd" class="s52" d="m500 88.2q0.7 2.3 1.9 4.6 0.6 10.8 1.9 21.5-1.3 13.5-3.4 26.9-0.8 1-1.9 1.5 0.3-4.7 1.5-9.2 0.7-0.1 1.1-0.8 0.6-3.8 0.4-7.7 0.8-15-1.5-29.1 0-0.8 0-1.6 0-3 0-6.1z"/>
	</g>
	<g>
		<path fill-rule="evenodd" class="s53" d="m529.9 137.3q0.8 0 1.6 0 0.5 3-1.6 4.6 0-1.9 0-3.8 0-0.4 0-0.8z"/>
	</g>
	<g>
		<path fill-rule="evenodd" class="s54" d="m259.7 66.7q1.1 1.2 0.7 3.1 1.6 145.6 0 290.9 0.4-140.7-0.7-281 0-6.5 0-13z"/>
	</g>
	<g>
		<path fill-rule="evenodd" class="s55" d="m500 129.6q0 2 0 3.9-1.2 4.5-1.5 9.2 0.3 2.2-1.6 3.1-1.1 0-2.3 0 1.8-7.2 3.9-14.2 0.2-1.6 1.5-2z"/>
	</g>
	<g>
		<path fill-rule="evenodd" class="s56" d="m353.3 113.5q-6.1 15.9-10.7 32.3-4.7 12.5-5.8 26.1-0.8 4.5-2.6 8.4 2.2-30.4 13.8-58.3 2.1-4.9 5.3-8.5z"/>
	</g>
	<g>
		<path fill-rule="evenodd" class="s57" d="m529.9 141.9q0.4 2.3-1.5 3.1-0.4-2.3 1.5-3.1z"/>
	</g>
	<g>
		<path fill-rule="evenodd" class="s58" d="m529.9 138.1q0 1.9 0 3.8-1.9 0.8-1.5 3.1-1.6 6.4-5 12.3-1.6 1.4-3.4 2.3 0-1.6 0-3.1 1.4-0.2 2.3-1.5 3.6-7.4 5.7-15.4 0.8-1 1.9-1.5z"/>
	</g>
	<g>
		<path fill-rule="evenodd" class="s59" d="m494.6 145.8q0.9 5-3.1 7.6 1-4.1 3.1-7.6z"/>
	</g>
	<g>
		<path fill-rule="evenodd" class="s60" d="m342.6 145.8q0 2.7 0 5.3-0.7 0.2-1.2 0.8-1.8 12.3-4.6 24.6-0.3 6.9-0.7 13.8-0.3 1-1.2 1.5-0.4 0-0.7 0 0-3.8 0-7.6 0-2 0-3.9 1.8-3.9 2.6-8.4 1.1-13.6 5.8-26.1z"/>
	</g>
	<g>
		<path fill-rule="evenodd" class="s61" d="m351 139.6q-1.4 8-4.2 15.4-1 9-3 17.6-2.3 10.6-2 21.5-0.7 0.2-1.1 0.8-0.6 10.7-0.4 21.5-0.8-5.4-0.8-11.1 1.6-13.9 1.9-28.1 3-15.2 5.8-30.7 2.1-3.3 3.8-6.9z"/>
	</g>
	<g>
		<path fill-rule="evenodd" class="s62" d="m494.6 145.8q1.2 0 2.3 0-0.8 6.6-5.4 11.5-1 5.6-6.1 7.7 2.3-2.9 4.2-6.2 1.7-2.5 1.9-5.4 4-2.6 3.1-7.6z"/>
	</g>
	<g>
		<path fill-rule="evenodd" class="s63" d="m491.5 153.4q-0.2 2.9-1.9 5.4-1.9 3.3-4.2 6.2 0 0.7 0 1.5-2.3 1.5-4.6 3.1-0.2-1.2 0.4-2.3 5.5-6.9 10.3-13.9z"/>
	</g>
	<g>
		<path fill-rule="evenodd" class="s64" d="m520 156.5q0 1.5 0 3.1-2.4 1.5-4.7 3.1 1.8-3.6 4.7-6.2z"/>
	</g>
	<g>
		<path fill-rule="evenodd" class="s65" d="m347.2 146.5q-2.8 15.5-5.8 30.7-0.3 14.2-1.9 28.1 0 5.7 0.8 11.1 0 0.8 0 1.5-3.3 0.4-5-2.3-0.6-11.9-0.4-23.8 0.9-0.5 1.2-1.5 0.4-6.9 0.7-13.8 2.8-12.3 4.6-24.6 0.5-0.6 1.2-0.8 1.9-4.3 3.1-9.2 3.7 1.3 1.5 4.6z"/>
	</g>
	<g>
		<path fill-rule="evenodd" class="s66" d="m520 159.6q-7.6 13.3-20.8 21.5-1.3 1.1-3.1 0.7 0.3-1.4 1.6-2.3 4.6-1.8 7.7-5.3 4.6-6.2 9.9-11.5 2.3-1.6 4.7-3.1z"/>
	</g>
	<g>
		<path fill-rule="evenodd" class="s67" d="m361 119.7q-0.6 4.6-1.9 9.2-5.5 10.9-8.4 23-1.8 12.6-5.4 24.6-1.6 12.2-2.3 24.5-0.5 0.7-1.2 0.8 0-3.8 0-7.7-0.3-10.9 2-21.5 2-8.6 3-17.6 2.8-7.4 4.2-15.4 2.1-2.8 3.5-6.1 1.7-5.8 3.8-11.5 0.9-1.8 2.7-2.3z"/>
	</g>
	<g>
		<path fill-rule="evenodd" class="s68" d="m480.8 169.6q0 1.5-1.5 1.5 0-1.5 1.5-1.5z"/>
	</g>
	<g>
		<path fill-rule="evenodd" class="s69" d="m485.4 166.5q-0.6 3.1-3.1 5-3.2 1.6-6.1 3.4 1.2-0.8 1.5-2.3 0-1.5 1.6-1.5 1.5 0 1.5-1.5 2.3-1.6 4.6-3.1z"/>
	</g>
	<g>
		<path fill-rule="evenodd" class="s70" d="m477.7 172.6q-0.3 1.5-1.5 2.3-1.2 1.1-3.1 0.8 1.1-3.2 4.6-3.1z"/>
	</g>
	<g>
		<path fill-rule="evenodd" class="s71" d="m505.4 174.2q-3.1 3.5-7.7 5.3-1.3 0.9-1.6 2.3-2.2-0.3-3 1.6-1.2 0-2.3 0 0-1.2 0-2.3 7.6-2.9 14.6-6.9z"/>
	</g>
	<g>
		<path fill-rule="evenodd" class="s72" d="m473.1 175.7q0.3 1.4-0.8 2.3-6.8 5.4-15.3 7.7 0-1.2 0-2.3 8.5-2.9 16.1-7.7z"/>
	</g>
	<g>
		<path fill-rule="evenodd" class="s73" d="m496.1 181.8q-0.7 2-3 1.6 0.8-1.9 3-1.6z"/>
	</g>
	<g>
		<path fill-rule="evenodd" class="s74" d="m490.8 183.4q1.1 0 2.3 0-0.8 1.9-3.1 1.5-0.2-1.1 0.8-1.5z"/>
	</g>
	<g>
		<path fill-rule="evenodd" class="s75" d="m457 183.4q0 1.1 0 2.3-0.8 0-1.5 0-9.4 3.1-19.2 3.1-11.9 0-23.8 0 12.2-2.1 25.3-2 9.7-1.4 19.2-3.4z"/>
	</g>
	<g>
		<path fill-rule="evenodd" class="s76" d="m412.5 188.8q11.9 0 23.8 0-11.5 2.2-23.8 1.5 0 2.7 0 5.4-1.8-1.5-2.3-3.9-0.5-2.8 2.3-3z"/>
	</g>
	<g>
		<path fill-rule="evenodd" class="s77" d="m490 184.9q-5.3 3.5-11.5 6.2 3.2 0.5 5.4 2.3-8.7 0.5-16.9-2 5.8-1.1 11.5-2.6 2.1-0.7 3.1-2.3 4.1-1.1 8.4-1.6z"/>
	</g>
	<g>
		<path fill-rule="evenodd" class="s78" d="m455.5 185.7q0.1 1-0.8 1.5-2.7 1.1-5.4 1.9-17.9 2.6-36.1 2-0.2 2.4 0.8 4.6-0.8 0-1.5 0 0-2.7 0-5.4 12.3 0.7 23.8-1.5 9.8 0 19.2-3.1z"/>
	</g>
	<g>
		<path fill-rule="evenodd" class="s79" d="m334.2 184.2q0 3.8 0 7.6 0 2.7 0 5.4-0.8 0-1.6 0-0.7-7 1.6-13z"/>
	</g>
	<g>
		<path fill-rule="evenodd" class="s80" d="m481.6 186.5q-1 1.6-3.1 2.3-5.7 1.5-11.5 2.6 8.2 2.5 16.9 2 0.3 0 0.7 0 2.9 2.1 6.9 1.5 2.5 2.2 6.2 1.5 2 2.2 5.4 1.6 0.3 0 0.7 0 1.2 2 3.9 1.5 0 0.8 0 1.5-21.2-5.8-43.4-8.4-2.1-0.6-0.4-1.9 8.9-2 17.7-4.2z"/>
	</g>
	<g>
		<path fill-rule="evenodd" class="s81" d="m484.6 193.4q4.1-0.7 6.9 1.5-4 0.6-6.9-1.5z"/>
	</g>
	<g>
		<path fill-rule="evenodd" class="s82" d="m491.5 194.9q3.7-0.6 6.2 1.5-3.7 0.7-6.2-1.5z"/>
	</g>
	<g>
		<path fill-rule="evenodd" class="s83" d="m412.5 195.7q0.7 0 1.5 0 21.1-0.8 41.5 1.5-20.8-1-41.5-0.8-1.1 0.2-1.5-0.7z"/>
	</g>
	<g>
		<path fill-rule="evenodd" class="s84" d="m414 196.4q20.7-0.2 41.5 0.8 0 0.4 0 0.8-6.2 0-12.3 0-14.6-0.8-29.2-1.6z"/>
	</g>
	<g>
		<path fill-rule="evenodd" class="s85" d="m497.7 196.4q2.3-0.2 4.6 0.4 0.6 0.5 0.8 1.2-3.4 0.6-5.4-1.6z"/>
	</g>
	<g>
		<path fill-rule="evenodd" class="s86" d="m410.2 191.8q0.5 2.4 2.3 3.9 0.4 0.9 1.5 0.7 14.6 0.8 29.2 1.6-15.4 0-30.7 0-3.9-1.4-3.5-5.4 0.5-0.6 1.2-0.8z"/>
	</g>
	<g>
		<path fill-rule="evenodd" class="s87" d="m412.5 198q15.3 0 30.7 0 6.1 0 12.3 0 11.2 0.9 22.2 3.8 2.1 0.7 3.1 2.3-12.5-3.3-25.3-4.2-21.2-0.4-42.3-0.8-0.6-0.4-0.7-1.1z"/>
	</g>
	<g>
		<path fill-rule="evenodd" class="s88" d="m503.8 198q2.7-0.5 3.9 1.5-2.7 0.5-3.9-1.5z"/>
	</g>
	<g>
		<path fill-rule="evenodd" class="s89" d="m455.5 198q0-0.4 0-0.8 13.7 0.3 26.8 5 1.7 0.4 2.3 1.9-1.9 0-3.8 0-1-1.6-3.1-2.3-11-2.9-22.2-3.8z"/>
	</g>
	<g>
		<path fill-rule="evenodd" class="s90" d="m291.2 149.6q0.7 0 1.5 0-0.2 30.3 0.4 60.7 5.6 0.3 10.3 2.3-6.1 0-12.2 0 0-31.5 0-63z"/>
	</g>
	<g>
		<path fill-rule="evenodd" class="s91" d="m507.7 201q4.9 1.4 9.2 3.9-5.4-0.2-9.2-3.9z"/>
	</g>
	<g>
		<path fill-rule="evenodd" class="s92" d="m480.8 204.1q1.9 0 3.8 0 1 0.4 0.8 1.5-3 0.6-4.6-1.5z"/>
	</g>
	<g>
		<path fill-rule="evenodd" class="s93" d="m332.6 197.2q0.8 0 1.6 0 0.7 6.6-1.6 12.3 0-1.9 0-3.9 0-4.2 0-8.4z"/>
	</g>
	<g>
		<path fill-rule="evenodd" class="s94" d="m334.2 191.8q0.3 0 0.7 0-0.2 11.9 0.4 23.8 1.7 2.7 5 2.3 0 1.2 0 2.3-1.2 0-2.3 0-2-2.7-5.4-3.8 0-0.4 0-0.8 0-2.3 0-4.6 0-0.4 0-0.7 0-0.4 0-0.8 2.3-5.7 1.6-12.3 0-2.7 0-5.4z"/>
	</g>
	<g>
		<path fill-rule="evenodd" class="s95" d="m485.4 205.6q2.3-0.3 3.1 1.6-2.3 0.4-3.1-1.6z"/>
	</g>
	<g>
		<path fill-rule="evenodd" class="s96" d="m488.5 207.2q2.3-0.4 3 1.5-2.2 0.4-3-1.5z"/>
	</g>
	<g>
		<path fill-rule="evenodd" class="s97" d="m507.7 199.5q1.5-0.2 3 0.4 6.1 3.1 12.3 6.1 3.3 2 5.4 5-6.4-2.2-11.5-6.1-4.3-2.5-9.2-3.9 0-0.7 0-1.5z"/>
	</g>
	<g>
		<path fill-rule="evenodd" class="s98" d="m341.8 194.1q0 3.9 0 7.7 0.8 9.7-1.5 18.4 0-1.1 0-2.3 0-0.7 0-1.5-0.2-10.8 0.4-21.5 0.4-0.6 1.1-0.8z"/>
	</g>
	<g>
		<path fill-rule="evenodd" class="s99" d="m332.6 205.6q0 2 0 3.9 0 0.4 0 0.8-1.3-0.4-1.5-2-0.1-1.9 1.5-2.7z"/>
	</g>
	<g>
		<path fill-rule="evenodd" class="s100" d="m500.8 46q1.8 0.6 3.8 0.7 0 1.2 0 2.3 1.2-0.1 2.3 0.4 3 3.6 6.9 5.8-0.2 3.5 3.1 4.6-0.2 1.6 0.4 3 5.9 4.4 7.3 11.6 5.5 10.5 7.6 22.2 2.1 20.6-2.3 40.7 0 0.4 0 0.8-1.1 0.5-1.9 1.5-2.1 8-5.7 15.4-0.9 1.3-2.3 1.5-2.9 2.6-4.7 6.2-5.3 5.3-9.9 11.5-7 4-14.6 6.9 0 1.1 0 2.3-1 0.4-0.8 1.5-4.3 0.5-8.4 1.6-8.8 2.2-17.7 4.2-1.7 1.3 0.4 1.9 22.2 2.6 43.4 8.4 3.8 3.7 9.2 3.9 5.1 3.9 11.5 6.1-0.2 1.2 0.8 1.6 0 1.1 0 2.3 1.5-0.2 3 0.3 1.4 2.4 3.9 3.5 3.8 3.4 7.7 6.9 2.9 1.8 5.3 4.6 1.6 4.7 6.2 6.2 0.5 4.3 4.6 6.1-0.4 2.3 1.5 3.1 1.4 6.1 4.6 11.5 4.5 10.9 6.9 22.3 2.3 25.5-2.7 50.6-1.2 3.9-2.6 7.7-1.6 4.6-3.1 9.2-1.2 0-2.3 0-0.8 3.4-0.8 6.9-1.5 0-1.5 1.6-1.2 0-2.3 0-0.4 2.3-0.8 4.6 0 0.7 0 1.5-5.3 2.7-8.4 7.7-3.2 1.1-4.6 4.2-2.2 1.1-4.7 1.5 0.8 2 0 4.3-2.3 0.7-3 3-1.8 0.1-3.5 0.8-6.8 4.5-14.2 8.4-0.4 0.8-0.8 1.6-0.7 0-1.5 0-5-1.1-9.6-3.1-1.6 1.6-3.8 2.3-1.6-3.3-4.2-5.4 1.4-1.6 3.8-2.3 0.9-1.4 0.8-3 2.2-0.3 3.8-2 4.9-5.4 9.2-11.1 3.1-3.1 6.2-6.1 4.1-2.7 4.6-7.7 4.2-3.1 4.6-8.5 2.3-3.4 3.4-7.6 9.1-36.5 1.6-73.7-1.3-5.3-3.5-10-0.8-1.4-0.8-3.1-1.1 0-2.3 0 0.4-2.3-1.5-3.1 0.4-2.2-1.5-3-0.8-1.6-1.6-3.1 0.4-2.3-1.5-3.1-1-6.3-6.9-8.4-0.5-2-1.6-3.9-2-2.9-4.6-5.3-2.6-4.5-7.6-4.6-0.6-2.9-3.1-4.6-2.7-1-4.6-3.1-1.8-1.1-3.9-0.8-0.7-1.9-3-1.5-0.8-1.9-3.1-1.6 0.2-1.1-0.8-1.5-0.6-1.5-2.3-1.9-13.1-4.7-26.8-5-20.4-2.3-41.5-1.5-1-2.2-0.8-4.6 18.2 0.6 36.1-2 2.7-0.8 5.4-1.9 0.9-0.5 0.8-1.5 0.7 0 1.5 0 8.5-2.3 15.3-7.7 1.1-0.9 0.8-2.3 1.9 0.3 3.1-0.8 2.9-1.8 6.1-3.4 2.5-1.9 3.1-5 0-0.8 0-1.5 5.1-2.1 6.1-7.7 4.6-4.9 5.4-11.5 1.9-0.9 1.6-3.1 1.1-0.5 1.9-1.5 2.1-13.4 3.4-26.9-1.3-10.7-1.9-21.5-1.2-2.3-1.9-4.6-2.2-3.9-3.1-8.5-1.1 0-2.3 0 0-0.7 0-1.5 1.5-1.4 0-3.1-1-2.1-3.1-3-0.8-5.1-3.8-9.3 0.2-2-0.8-3.8-3.2-0.8-4.6-3.8-1.2-4.5-1.5-8.5-1.4 0.6-2.7 1.6-1.5-4.6-3.1 0-2.1-0.7-4.2-1.6 1.2-1.5 2.3-3-0.9-1.1-2.3-0.8 0 1.1 0 2.3-3.9-0.6-7.7-1.5-1.5-1.2-1.5-3.1-2.6-1.1-5.4-1.6 2-1.5 4.2 0 0.5-1 1.6-1.5 5-0.4 9.6-2.3 1.4 2.3 3.4 0.8 2.4 0.9 5 1.1 1.6 1.6 0 3.1 4.3 3.7 8.1-0.4 1.5 2.8 2.3 0 2.2 2.3 4.6 4.6 0.6-2 1.9-0.7-0.9 1-0.4 2.3 2.1-1.5 4.3 0z"/>
	</g>
	<g>
		<path fill-rule="evenodd" class="s101" d="m528.4 211q3.5-0.1 4.6 3.1-2.1-0.4-3.8-1.5-1-0.4-0.8-1.6z"/>
	</g>
	<g>
		<path fill-rule="evenodd" class="s102" d="m332.6 211q0 2.3 0 4.6-1.6-0.7-1.5-2.7 0.2-1.5 1.5-1.9z"/>
	</g>
	<g>
		<path fill-rule="evenodd" class="s103" d="m491.5 208.7q2.1-0.3 3.9 0.8 1.9 2.1 4.6 3.1 2.5 1.7 3.1 4.6-3.9-3.1-8.5-5-1.9-1.5-3.1-3.5z"/>
	</g>
	<g>
		<path fill-rule="evenodd" class="s104" d="m529.2 212.6q1.7 1.1 3.8 1.5 1.5 0 1.5 1.5 0.8 1.6 1.6 3.1-2.5-1.1-3.9-3.5-1.5-0.5-3-0.3 0-1.2 0-2.3z"/>
	</g>
	<g>
		<path fill-rule="evenodd" class="s105" d="m305 212.6q5.8-0.4 10 3-6.1 1-10-3z"/>
	</g>
	<g>
		<path fill-rule="evenodd" class="s106" d="m315.7 215.6q2.7-0.5 3.9 1.6-2.7 0.5-3.9-1.6z"/>
	</g>
	<g>
		<path fill-rule="evenodd" class="s107" d="m319.6 217.2q2.9-0.6 4.6 1.5-3 0.5-4.6-1.5z"/>
	</g>
	<g>
		<path fill-rule="evenodd" class="s108" d="m534.5 215.6q3.6-0.1 4.6 3.1-1.5 0-3 0-0.8-1.5-1.6-3.1z"/>
	</g>
	<g>
		<path fill-rule="evenodd" class="s109" d="m332.6 216.4q3.4 1.1 5.4 3.8-4.4 0.3-5.4-3.8z"/>
	</g>
	<g>
		<path fill-rule="evenodd" class="s110" d="m503.1 217.2q5 0.1 7.6 4.6-2-1.4-4.6-1.6-2-1-3-3z"/>
	</g>
	<g>
		<path fill-rule="evenodd" class="s111" d="m324.2 218.7q3.9 0.1 6.1 3.1-2.4 0-4.6-0.8-1.2-0.8-1.5-2.3z"/>
	</g>
	<g>
		<path fill-rule="evenodd" class="s112" d="m325.7 221q2.2 0.8 4.6 0.8 0.4 0 0.8 0 1.1 1.5 2.3 3-4-1.9-7.7-3.8z"/>
	</g>
	<g>
		<path fill-rule="evenodd" class="s113" d="m536.1 218.7q1.5 0 3 0 2.3 0.8 3.1 3.1 1.2 1.7 1.6 3.8-3.9-3.5-7.7-6.9z"/>
	</g>
	<g>
		<path fill-rule="evenodd" class="s114" d="m331.1 221.8q7.3 2.3 13 7.6 1.1 1 0.8 2.4-5.8-3.5-11.5-7-1.2-1.5-2.3-3z"/>
	</g>
	<g>
		<path fill-rule="evenodd" class="s115" d="m542.2 221.8q4.1 1.7 6.9 5.3 4.1 4.1 6.2 9.3-4.6-1.5-6.2-6.2-2.4-2.8-5.3-4.6-0.4-2.1-1.6-3.8z"/>
	</g>
	<g>
		<path fill-rule="evenodd" class="s116" d="m506.1 220.2q2.6 0.2 4.6 1.6 2.6 2.4 4.6 5.3 1.1 1.9 1.6 3.9-5.8-5-10.8-10.8z"/>
	</g>
	<g>
		<path fill-rule="evenodd" class="s117" d="m516.9 231q5.9 2.1 6.9 8.4-1.4-0.2-2.3-1.5-2.3-3.5-4.6-6.9z"/>
	</g>
	<g>
		<path fill-rule="evenodd" class="s118" d="m555.3 236.4q3.9 1.8 4.6 6.1-4.1-1.8-4.6-6.1z"/>
	</g>
	<g>
		<path fill-rule="evenodd" class="s119" d="m523.8 239.4q1.9 0.8 1.5 3.1-1.9-0.8-1.5-3.1z"/>
	</g>
	<g>
		<path fill-rule="evenodd" class="s120" d="m326.5 244q0.7 0 1.5 0 1.5 0.8 3.1 1.6 0 1.5 0 3-3.1-1.5-4.6-4.6z"/>
	</g>
	<g>
		<path fill-rule="evenodd" class="s121" d="m559.9 242.5q1.9 0.8 1.5 3.1-1.9-0.8-1.5-3.1z"/>
	</g>
	<g>
		<path fill-rule="evenodd" class="s122" d="m526.9 245.6q1.9 0.8 1.5 3-1.9-0.7-1.5-3z"/>
	</g>
	<g>
		<path fill-rule="evenodd" class="s123" d="m331.1 245.6q4.6 2.4 4.6 7.6-2.8-1.8-4.6-4.6 0-1.5 0-3z"/>
	</g>
	<g>
		<path fill-rule="evenodd" class="s124" d="m528.4 248.6q1.9 0.8 1.5 3.1-1.9-0.8-1.5-3.1z"/>
	</g>
	<g>
		<path fill-rule="evenodd" class="s125" d="m561.4 245.6q4.8 4.8 6.9 11.5-1.1 0-2.3 0-3.2-5.4-4.6-11.5z"/>
	</g>
	<g>
		<path fill-rule="evenodd" class="s126" d="m292.7 221q5.9 1.1 11.5 3.5 12.2 5.9 21.5 15.7 1.4 1.9 2.3 3.8-0.8 0-1.5 0-1.1-2.1-3.1-3-0.9-2.8-3.8-3.1-1.2-2.5-3.1-4.6-6.3-4.7-13.8-6.9-3-3.3-7.7-3.1-0.4 0-0.8 0-0.8-1.9-3-1.5 0 38.7 0 77.5 0 6.2 0 12.3 0 7.3 0 14.6 0 5 0 10-0.8 18.1 1.5 35.3-0.6 4 1.5 6.9-0.6 3.7 1.6 6.1 0 1.6 0 3.1-2.1-1.8-3.1-4.6-0.7-4.4-1.9-8.4-0.6-4.6-0.4-9.3-1.1-72.1-0.8-144.3 1.6 0 3.1 0z"/>
	</g>
	<g>
		<path fill-rule="evenodd" class="s127" d="m319.6 237.9q2.9 0.3 3.8 3.1-2.6-0.7-3.8-3.1z"/>
	</g>
	<g>
		<path fill-rule="evenodd" class="s128" d="m302.7 226.4q7.5 2.2 13.8 6.9 1.9 2.1 3.1 4.6-8.9-5.4-16.9-11.5z"/>
	</g>
	<g>
		<path fill-rule="evenodd" class="s129" d="m295 223.3q4.7-0.2 7.7 3.1-1.6 0.2-3.1-0.4-2.7-0.9-4.6-2.7z"/>
	</g>
	<g>
		<path fill-rule="evenodd" class="s130" d="m529.9 251.7q1.2 0 2.3 0 0 1.7 0.8 3.1 0 1.9 0 3.8-1.8-1.4-2.7-3.8-0.5-1.5-0.4-3.1z"/>
	</g>
	<g>
		<path fill-rule="evenodd" class="s131" d="m257.4 65.9q1.1 0 2.3 0 0 0.4 0 0.8 0 6.5 0 13 0 144.4 0 288.7-1.2 0-2.3 0 1.5-151.2 0-302.5z"/>
	</g>
	<g>
		<path fill-rule="evenodd" class="s132" d="m368.7 255.6q5.5 4.2 9.2 10.3 1.1 0.6 2.3 0.4 0.4 2.1 1.6 3.8-3-1.2-5-3.8-4.3-5.2-8.1-10.7z"/>
	</g>
	<g>
		<path fill-rule="evenodd" class="s133" d="m259.7 79.7q1.1 140.3 0.7 281 0 2.7 0 5.4 0.2 3.1-0.3 6.2-0.1 2.4-2 3.8 0.4-3.3-0.7-6.2 0-0.7 0-1.5 1.1 0 2.3 0 0-144.3 0-288.7z"/>
	</g>
	<g>
		<path fill-rule="evenodd" class="s134" d="m335.7 253.2q3.5 1.6 6.1 4.7 1.1 3.7 3.9 6.1 1.7 1.5 1.5 3.8-7-6.2-11.5-14.6z"/>
	</g>
	<g>
		<path fill-rule="evenodd" class="s135" d="m338.8 263.2q-2.3-0.7-4.3 0-0.5 5.4-0.3 10.8-2.3-6.4-1.6-13.8 4.3-0.7 6.2 3z"/>
	</g>
	<g>
		<path fill-rule="evenodd" class="s136" d="m344.9 231.8q1.6-0.2 3.1 0.3 19.1 14.4 32.2 34.2-1.2 0.2-2.3-0.4-3.7-6.1-9.2-10.3-8.7-9.9-18.8-18.5-0.6-1.1-0.4-2.3-3.5 0.2-4.6-3z"/>
	</g>
	<g>
		<path fill-rule="evenodd" class="s137" d="m533 260.2q2.1 1.6 1.5 4.6-2-1.8-1.5-4.6z"/>
	</g>
	<g>
		<path fill-rule="evenodd" class="s138" d="m566 257.1q1.2 0 2.3 0 2 5.2 3.1 10.7-0.6 3.4 1.5 5.4 0 0.8 0 1.5 0 2.3 0 4.7-2.4-11.4-6.9-22.3z"/>
	</g>
	<g>
		<path fill-rule="evenodd" class="s139" d="m380.2 266.3q1.4 0.3 2.3 1.5 1.5 2.6 2.3 5.4-2.3-0.8-3-3.1-1.2-1.7-1.6-3.8z"/>
	</g>
	<g>
		<path fill-rule="evenodd" class="s140" d="m534.5 267.1q2.1 1.2 1.6 3.8-2-1.2-1.6-3.8z"/>
	</g>
	<g>
		<path fill-rule="evenodd" class="s141" d="m294.2 223.3q-2.3 37.6-1.5 76-0.8 0-1.5 0 0-38.8 0-77.5 2.2-0.4 3 1.5z"/>
	</g>
	<g>
		<path fill-rule="evenodd" class="s142" d="m347.2 267.8q3.2 1.1 3.1 4.6-2.9-1.3-3.1-4.6z"/>
	</g>
	<g>
		<path fill-rule="evenodd" class="s143" d="m571.4 267.8q0.7 0.2 1.1 0.8 0.6 2.3 0.4 4.6-2.1-2-1.5-5.4z"/>
	</g>
	<g>
		<path fill-rule="evenodd" class="s144" d="m338.8 263.2q1.4 0.3 2.3 1.6 2.9 4.5 2.3 9.9 0 1.6 0 3.1-1.6-4.6-3.1-9.2 0.2-1.9-1.5-2.3 0-1.5 0-3.1z"/>
	</g>
	<g>
		<path fill-rule="evenodd" class="s145" d="m345.7 264q3 0.9 4.6 3.8 3.1 5.5 6.1 10.8-2.3-1.6-4.6-3.1-0.8-1.5-1.5-3.1 0.1-3.5-3.1-4.6 0.2-2.3-1.5-3.8z"/>
	</g>
	<g>
		<path fill-rule="evenodd" class="s146" d="m384.8 273.2q3.3 1.1 3.1 4.6-3.2-1.1-3.1-4.6z"/>
	</g>
	<g>
		<path fill-rule="evenodd" class="s147" d="m572.9 274.7q2.1 1.7 1.6 4.7-0.8 0-1.6 0 0-2.4 0-4.7z"/>
	</g>
	<g>
		<path fill-rule="evenodd" class="s148" d="m338.8 266.3q1.7 0.4 1.5 2.3 2.2 11.9 3.8 24.2 0.3 3.4 2.3 5.7 0 0.8 0 1.6 1.9 6.3-0.7 12.3-0.8-2.1-1.9-3.9-5.6-19.5-7-39.9-0.8-1-1.9-1.5-0.3-1.7 0.8-3.1 1.5 1.2 3.1 2.3z"/>
	</g>
	<g>
		<path fill-rule="evenodd" class="s149" d="m340.3 268.6q1.5 4.6 3.1 9.2 1.2 10.4 3 20.7-2-2.3-2.3-5.7-1.6-12.3-3.8-24.2z"/>
	</g>
	<g>
		<path fill-rule="evenodd" class="s150" d="m334.2 274q2.2 5.6 1.5 12.3-0.7-0.2-1.2-0.8-0.5-5.8-0.3-11.5z"/>
	</g>
	<g>
		<path fill-rule="evenodd" class="s151" d="m536.1 274q2.2 3.2 1.5 7.7-0.8-0.5-1.1-1.6-0.6-3-0.4-6.1z"/>
	</g>
	<g>
		<path fill-rule="evenodd" class="s152" d="m292.7 221q-1.5 0-3.1 0-0.3 72.2 0.8 144.3-0.9-0.8-1.2-2.3-0.5-71.7-0.3-143.5 2.6-0.5 3.8 1.5z"/>
	</g>
	<g>
		<path fill-rule="evenodd" class="s153" d="m387.9 277.8q2.2 1.3 4.2 3.1 3.8 6 8.5 11.5 0.7 2.5 1.9 4.6-5.7-3.6-8.1-10-2.7-3.7-6.5-6.1 0-1.5 0-3.1z"/>
	</g>
	<g>
		<path fill-rule="evenodd" class="s154" d="m351.8 275.5q2.3 1.5 4.6 3.1 0.5 2.8 1.6 5.4 1.8-0.1 3 1.5 6.5 12.6 14.6 23.8 0 1.5 0 3.1-1.8-0.5-2.7-2.3-10.6-17.4-21.1-34.6z"/>
	</g>
	<g>
		<path fill-rule="evenodd" class="s155" d="m335.7 287q2.1 2.5 1.5 6.2-2.1-2.5-1.5-6.2z"/>
	</g>
	<g>
		<path fill-rule="evenodd" class="s156" d="m338.8 263.2q0 1.6 0 3.1-1.6-1.1-3.1-2.3-1.1 1.4-0.8 3.1 2.6 17.7 6.2 35.3-1.1-0.7-2.3-0.8 0.6-4-1.6-6.9 0-0.8 0-1.5 0.6-3.7-1.5-6.2 0-0.4 0-0.7 0.7-6.7-1.5-12.3-0.2-5.4 0.3-10.8 2-0.7 4.3 0z"/>
	</g>
	<g>
		<path fill-rule="evenodd" class="s157" d="m387.9 280.9q3.8 2.4 6.5 6.1 2.4 6.4 8.1 10 0.8 3.1 1.5 6.2-2.8-1.4-2.3-4.7-1.3 0.3-2.3-0.7-0.8-3-3.4-4.6-0.4 0.7-0.8 1.5-2-1.1-0.4-2.7-3.3-5.7-6.9-11.1z"/>
	</g>
	<g>
		<path fill-rule="evenodd" class="s158" d="m343.4 274.7q4.2 17.6 8.4 35.4-1.3-0.1-2.3-0.8 0.2-2-0.4-3.8-0.8-3.1-2.7-5.4 0-0.8 0-1.6-1.8-10.3-3-20.7 0-1.5 0-3.1z"/>
	</g>
	<g>
		<path fill-rule="evenodd" class="s159" d="m574.5 282.4q0.7 0.2 1.1 0.8 0.6 12.7 0.4 25.3-0.8 0-1.5 0 0-13 0-26.1z"/>
	</g>
	<g>
		<path fill-rule="evenodd" class="s160" d="m291.2 299.3q0.7 0 1.5 0 0 6.2 0 12.3-0.8 0-1.5 0 0-6.1 0-12.3z"/>
	</g>
	<g>
		<path fill-rule="evenodd" class="s161" d="m337.2 294.7q2.2 2.9 1.6 6.9-0.8-0.1-1.2-0.7-0.6-3.1-0.4-6.2z"/>
	</g>
	<g>
		<path fill-rule="evenodd" class="s162" d="m537.6 289.3q1.5 4.4 1.5 9.6 0 5.3-1.5 9.6 0-9.6 0-19.2z"/>
	</g>
	<g>
		<path fill-rule="evenodd" class="s163" d="m402.5 297q1.8 0.5 2.7 2.3 2.3 3.2 3.4 6.9-1.5-0.7-3-1.5 0-1.5-1.6-1.5-0.7-3.1-1.5-6.2z"/>
	</g>
	<g>
		<path fill-rule="evenodd" class="s164" d="m334.9 267.1q1.1 0.5 1.9 1.5 1.4 20.4 7 39.9 1.1 1.8 1.9 3.9 2.6-6 0.7-12.3 1.9 2.3 2.7 5.4 0.6 1.8 0.4 3.8 1.5 3.3 1.5 6.9-1.1-1.5-2.3 0-2.5-5.6-2.3 1.5-0.3 0-0.7 0-2.4-7.7-4.6-15.3-3.6-17.6-6.2-35.3z"/>
	</g>
	<g>
		<path fill-rule="evenodd" class="s165" d="m405.6 304.7q1.5 0.8 3 1.5 0.5 2.8 1.6 5.4-3.2-2.9-4.6-6.9z"/>
	</g>
	<g>
		<path fill-rule="evenodd" class="s166" d="m574.5 308.5q0.7 0 1.5 0 0.2 3.1-0.4 6.2-0.4 0.6-1.1 0.7 0-3.4 0-6.9z"/>
	</g>
	<g>
		<path fill-rule="evenodd" class="s167" d="m349.5 309.3q1 0.7 2.3 0.8 0.7 0.1 1.2 0.7 2.3 6.4 3.4 13.1-1.7-1.1-2.3-3.1-1.7-2.1-3.1-4.6 0-3.6-1.5-6.9z"/>
	</g>
	<g>
		<path fill-rule="evenodd" class="s168" d="m291.2 311.6q0.7 0 1.5 0 0.3 7.6-1.5 14.6 0-7.3 0-14.6z"/>
	</g>
	<g>
		<path fill-rule="evenodd" class="s169" d="m375.6 309.3q2.6 1.6 3.1 4.6-1.6-0.8-3.1-1.5 0-1.6 0-3.1z"/>
	</g>
	<g>
		<path fill-rule="evenodd" class="s170" d="m537.6 313.1q0.7 4.4-1.5 7.7-0.7-4.4 1.5-7.7z"/>
	</g>
	<g>
		<path fill-rule="evenodd" class="s171" d="m375.6 312.4q1.5 0.7 3.1 1.5 2.8 5.7 6.9 10.8 1.8 4.7 5.4 8.4 1 1.4 0.7 3.1-3.7-2.9-6.5-6.9-4.1-7.6-9.2-14.6-0.6-1.1-0.4-2.3z"/>
	</g>
	<g>
		<path fill-rule="evenodd" class="s172" d="m338.8 301.6q1.2 0.1 2.3 0.8 2.2 7.6 4.6 15.3 2.8 8.3 4.6 16.9-3.6-6.2-6.5-13-1.9-7.6-4.7-14.6-0.5-2.7-0.3-5.4z"/>
	</g>
	<g>
		<path fill-rule="evenodd" class="s173" d="m408.6 306.2q3.4 3.2 6.6 6.9 4.3 6.8 9.2 13.1 0.5 1.1 0.3 2.3-2.4-1.2-4.6-3.1-3.8-6.1-7.6-12.3-0.9-1.2-2.3-1.5-1.1-2.6-1.6-5.4z"/>
	</g>
	<g>
		<path fill-rule="evenodd" class="s174" d="m351 316.2q1.4 2.5 3.1 4.6-0.2 3.1 0.4 6.2 4.2 8.4 8.8 16.5 0.8 1.5 2.3 1.9 2.6 4.9 6.2 9.2 1.5 3.3 2.3 6.9-1.7-0.1-3.1 0.8-1.2-1.7-3.1-2.3-5.2-4.8-7.6-11.5-0.4-2.4-0.8-4.7-1.2 0-2.3 0-0.4-3-0.8-6.1-1.1 0-2.3 0-4.4-9.8-7.7-20-0.2-7.1 2.3-1.5 1.2-1.5 2.3 0z"/>
	</g>
	<g>
		<path fill-rule="evenodd" class="s175" d="m574.5 318.5q0.1 3.1-0.4 6.2-0.5 0.6-1.2 0.7-0.6-4 1.6-6.9z"/>
	</g>
	<g>
		<path fill-rule="evenodd" class="s176" d="m533 254.8q2.2 4.7 3.5 10 7.5 37.2-1.6 73.7-1.1 4.2-3.4 7.6 0-2.3 0-4.6 2.1-2 1.5-5.3 1.8-7.6 3.1-15.4 2.2-3.3 1.5-7.7 0-2.3 0-4.6 1.5-4.3 1.5-9.6 0-5.2-1.5-9.6 0-3.8 0-7.6 0.7-4.5-1.5-7.7 0-1.6 0-3.1 0.5-2.6-1.6-3.8 0-1.2 0-2.3 0.6-3-1.5-4.6 0-0.8 0-1.6 0-1.9 0-3.8z"/>
	</g>
	<g>
		<path fill-rule="evenodd" class="s177" d="m356.4 323.9q1.9 0.8 1.6 3.1-2-0.8-1.6-3.1z"/>
	</g>
	<g>
		<path fill-rule="evenodd" class="s178" d="m572.9 279.4q0.8 0 1.6 0 0 1.5 0 3 0 13.1 0 26.1 0 3.5 0 6.9 0 1.6 0 3.1-2.2 2.9-1.6 6.9 0 0.4 0 0.8-2.1 2-1.5 5.4 0 0.3 0 0.7-2 1.2-1.5 3.9 0 0.7 0 1.5-1.2 0-2.3 0 1.4-3.8 2.6-7.7 5-25.1 2.7-50.6z"/>
	</g>
	<g>
		<path fill-rule="evenodd" class="s179" d="m572.9 326.2q0.6 3.3-1.5 5.4-0.6-3.4 1.5-5.4z"/>
	</g>
	<g>
		<path fill-rule="evenodd" class="s180" d="m358 327q1.9 0.7 1.5 3-1.9-0.8-1.5-3z"/>
	</g>
	<g>
		<path fill-rule="evenodd" class="s181" d="m424.7 328.5q4 1.8 4.7 6.1-4.6-1.3-4.7-6.1z"/>
	</g>
	<g>
		<path fill-rule="evenodd" class="s182" d="m359.5 330q3.8 4.2 4.6 10-1.9-2.1-3.8-4.6-1.2-2.6-0.8-5.4z"/>
	</g>
	<g>
		<path fill-rule="evenodd" class="s183" d="m385.6 324.7q1.3-0.3 2.3 0.7 4.7 7.5 8.4 15.4-0.7 0-1.5 0 0-1.6-1.5-1.6 0.4-2.2-1.6-3 0.3-1.7-0.7-3.1-3.6-3.7-5.4-8.4z"/>
	</g>
	<g>
		<path fill-rule="evenodd" class="s184" d="m571.4 332.3q0.5 2.7-1.5 3.9-0.5-2.7 1.5-3.9z"/>
	</g>
	<g>
		<path fill-rule="evenodd" class="s185" d="m432.1 212.8q0.6 2 2.3 3.1-0.4 2.3 1.6 3.1-0.4 2.2 1.5 3-0.4 2.8 0.8 5.4 1.9 2.5 3.8 4.6-0.4 2.3 1.5 3.1 0 1.1 0 2.3-1.5-0.4-2.3-1.9-4.6-8.1-8.8-16.5-0.6-3.1-0.4-6.2z"/>
	</g>
	<g>
		<path fill-rule="evenodd" class="s186" d="m391.7 336.2q2 0.8 1.6 3-2-0.7-1.6-3z"/>
	</g>
	<g>
		<path fill-rule="evenodd" class="s187" d="m345.7 317.7q0.4 0 0.7 0 3.3 10.2 7.7 20 1.2 0 2.3 0 0.4 3.1 0.8 6.1 1.1 0 2.3 0 0.4 2.3 0.8 4.7-1.9-1-1.6-3.1-1.1 0-2.3 0-1.2-4.8-3.8-9.2-0.9-1.3-2.3-1.6-1.8-8.6-4.6-16.9z"/>
	</g>
	<g>
		<path fill-rule="evenodd" class="s188" d="m393.3 339.2q1.5 0 1.5 1.6-1.5 0-1.5-1.6z"/>
	</g>
	<g>
		<path fill-rule="evenodd" class="s189" d="m533 336.2q0.6 3.3-1.5 5.3-0.2-2.3 0.4-4.6 0.4-0.6 1.1-0.7z"/>
	</g>
	<g>
		<path fill-rule="evenodd" class="s190" d="m567.6 337.7q1.1 0 2.3 0-2.3 9.3-8.5 16.1 0-3.5 0.8-6.9 1.1 0 2.3 0 1.5-4.6 3.1-9.2z"/>
	</g>
	<g>
		<path fill-rule="evenodd" class="s191" d="m364.1 340q1.9 0.8 1.5 3.1-1.9-0.8-1.5-3.1z"/>
	</g>
	<g>
		<path fill-rule="evenodd" class="s192" d="m394.8 340.8q0.8 0 1.5 0 0.8 1.5 1.6 3 1.1 2.6 1.5 5.4-3.8-3.3-4.6-8.4z"/>
	</g>
	<g>
		<path fill-rule="evenodd" class="s193" d="m429.4 334.6q5.2 6.4 11.5 12.3 1.6 1.6 1.5 3.9-3.1-2-5.4-4.7-3.4-3.6-6.9-7.6-1.1-1.8-0.7-3.9z"/>
	</g>
	<g>
		<path fill-rule="evenodd" class="s194" d="m358 349.2q1.9 0.8 1.5 3.1-1.9-0.8-1.5-3.1z"/>
	</g>
	<g>
		<path fill-rule="evenodd" class="s195" d="m397.9 343.8q4.7 5.5 8.4 11.6 0 2.3 0.8 4.6-1.8-0.5-2.7-2.3-3.1-3.9-5-8.5-0.4-2.8-1.5-5.4z"/>
	</g>
	<g>
		<path fill-rule="evenodd" class="s196" d="m531.5 341.5q0 2.3 0 4.6-3.2 3.7-4.6 8.5-1.8 2.7-4.6 4.6 3.7-9.4 9.2-17.7z"/>
	</g>
	<g>
		<path fill-rule="evenodd" class="s197" d="m531.5 346.1q-0.4 5.4-4.6 8.5 1.4-4.8 4.6-8.5z"/>
	</g>
	<g>
		<path fill-rule="evenodd" class="s198" d="m561.4 353.8q0.4 2.3-1.5 3.1 0-0.8 0-1.5 0-1.6 1.5-1.6z"/>
	</g>
	<g>
		<path fill-rule="evenodd" class="s199" d="m406.3 355.4q1.9 0.3 3.5 1.5 2.6 3.5 4.2 7.7-3.2-2.8-6.9-4.6-0.8-2.3-0.8-4.6z"/>
	</g>
	<g>
		<path fill-rule="evenodd" class="s200" d="m437 346.1q2.3 2.7 5.4 4.7 1.5 0 1.5 1.5-0.1 1.2 0.4 2.3 1.9 1.2 2.7 3.1-3.2-1.1-4.6-4.3-1.1-0.5-2.3-0.3-1.5-3.5-3.1-7z"/>
	</g>
	<g>
		<path fill-rule="evenodd" class="s201" d="m559.9 355.4q0 0.7 0 1.5-0.8 1.5-1.6 3.1-0.7 0-1.5 0 0.4-2.3 0.8-4.6 1.1 0 2.3 0z"/>
	</g>
	<g>
		<path fill-rule="evenodd" class="s202" d="m443.9 352.3q5.5 4.1 10 9.6 3.2 1.2 5.4 3.4-3.4 0.2-6.1-1.5 0-1.5-1.6-1.5-1.5-3.1-4.6-4.6-0.8-1.9-2.7-3.1-0.5-1.1-0.4-2.3z"/>
	</g>
	<g>
		<path fill-rule="evenodd" class="s203" d="m526.9 354.6q-0.5 5-4.6 7.7 0-1.6 0-3.1 2.8-1.9 4.6-4.6z"/>
	</g>
	<g>
		<path fill-rule="evenodd" class="s204" d="m447 357.7q3.1 1.5 4.6 4.6-4.2-0.4-4.6-4.6z"/>
	</g>
	<g>
		<path fill-rule="evenodd" class="s205" d="m556.8 360q0.8 0 1.5 0 0 1.5-1.5 1.5 0-0.8 0-1.5z"/>
	</g>
	<g>
		<path fill-rule="evenodd" class="s206" d="m371.8 354.6q4.2 2.7 4.6 7.7 3.3 0.4 4.2 3.8 5 3.3 8.8 7.7-2.7-1.1-5.3 0-1.1 1.8 0 3.8-3.5-1.5-5.4-4.6 1 0.6 2.3 0.8 2.2-1.3 4.6-1.9-3.5-3.1-6.9-6.2-2-0.2-3.9-1.1 1.1-1.5 0.4-3.1-1.1 1-2.7 0.8 0.4 4 3.1 6.9-3.7-2.6-6.9-6.2-1.1-1.3-0.8-3 1.9 0.6 3.1 2.3 1.4-0.9 3.1-0.8-0.8-3.6-2.3-6.9z"/>
	</g>
	<g>
		<path fill-rule="evenodd" class="s207" d="m291.2 336.2q0.9 2 1.1 4.6 0.6 15.3 0.4 30.7-2.3-17.2-1.5-35.3z"/>
	</g>
	<g>
		<path fill-rule="evenodd" class="s208" d="m453.2 363.8q2.7 1.7 6.1 1.5 2.5 2.2 6.1 1.6 1.3 2 3.9 1.5 0 3.1 0 6.2-1.9 0-3.9 0 3.5-1.5 3.1-5.4-4.2 0.2-8.4-0.4-4.6-1-6.9-5z"/>
	</g>
	<g>
		<path fill-rule="evenodd" class="s209" d="m459.3 365.3q4.8-0.6 8.4 1.6-1.1 0-2.3 0-3.6 0.6-6.1-1.6z"/>
	</g>
	<g>
		<path fill-rule="evenodd" class="s210" d="m522.3 359.2q0 1.5 0 3.1-3.1 3-6.2 6.1-1.1 0-2.3 0 3.9-5 8.5-9.2z"/>
	</g>
	<g>
		<path fill-rule="evenodd" class="s211" d="m556.8 361.5q-3.9 8.6-11.5 14.6-1.3 1.3-3.1 1.5 3.5-3.9 6.2-8.4 3.1-5 8.4-7.7z"/>
	</g>
	<g>
		<path fill-rule="evenodd" class="s212" d="m365.6 343.1q1.8 0.6 3.1 2.3 13.1 21.8 34.6 35.7 1.4 1.6 2.3 3.4-1.7 0.3-3.1-0.7-2.5-2.4-5.4-3.9-2-1.4-4.6-1.5-0.6-2.9-3.1-4.6-3.8-4.4-8.8-7.7-0.9-3.4-4.2-3.8-0.4-5-4.6-7.7-3.6-4.3-6.2-9.2 0-1.2 0-2.3z"/>
	</g>
	<g>
		<path fill-rule="evenodd" class="s213" d="m378.7 373q-1.6-1.9-3.1-3.8-2.7-2.9-3.1-6.9 1.6 0.2 2.7-0.8 0.7 1.6-0.4 3.1 1.9 0.9 3.9 1.1 3.4 3.1 6.9 6.2-2.4 0.6-4.6 1.9-1.3-0.2-2.3-0.8z"/>
	</g>
	<g>
		<path fill-rule="evenodd" class="s214" d="m465.4 366.9q1.2 0 2.3 0 4 0.1 3.1 4.2-0.1 2.3-1.5 3.5 0-3.1 0-6.2-2.6 0.5-3.9-1.5z"/>
	</g>
	<g>
		<path fill-rule="evenodd" class="s215" d="m292.7 371.5q2.2 2.8 1.5 6.9-2.1-2.9-1.5-6.9z"/>
	</g>
	<g>
		<path fill-rule="evenodd" class="s216" d="m407.1 360q3.7 1.8 6.9 4.6 3.8 6.4 10.7 9.2 0 1.1 0 2.3-1.7 0.3-3-0.8-8.2-6.9-14.6-15.3z"/>
	</g>
	<g>
		<path fill-rule="evenodd" class="s217" d="m548.4 369.2q-2.7 4.5-6.2 8.4-1.5 0-1.5 1.6-0.8 0-1.6 0 0.8-2.3 0-4.3 2.5-0.4 4.7-1.5 1.4-3.1 4.6-4.2z"/>
	</g>
	<g>
		<path fill-rule="evenodd" class="s218" d="m350.3 334.6q1.4 0.3 2.3 1.6 2.6 4.4 3.8 9.2 1.2 0 2.3 0-0.3 2.1 1.6 3.1 2.4 6.7 7.6 11.5-0.3 1.7 0.8 3 3.2 3.6 6.9 6.2 1.5 1.9 3.1 3.8 1.9 3.1 5.4 4.6 0.7 2.3 3 3.1 1.1 2.2 3.1 3.8 4.3 2.8 8.4 5.4 1.1 0.8 0.8 2.3-1.7 0.3-3.1-0.8-22.9-15.5-36.8-39.1 0.4-2.3-1.5-3.1-5.4-6.3-7.7-14.6z"/>
	</g>
	<g>
		<path fill-rule="evenodd" class="s219" d="m465.4 374.6q2 0 3.9 0-4.2 3.8-10 4.6 3.1-2.3 6.1-4.6z"/>
	</g>
	<g>
		<path fill-rule="evenodd" class="s220" d="m424.7 376.1q4.3 0 7 3.1-4.3-0.1-7-3.1z"/>
	</g>
	<g>
		<path fill-rule="evenodd" class="s221" d="m542.2 377.6q0 1.6-1.5 1.6 0-1.6 1.5-1.6z"/>
	</g>
	<g>
		<path fill-rule="evenodd" class="s222" d="m424.7 373.8q5.2 1.6 10 4.2 15.9 1.7 30.7-3.4-3 2.3-6.1 4.6-0.8 0-1.5 0-3.7-0.7-6.2 1.5-0.4 0-0.7 0-9.7-0.3-19.2-1.5-2.7-3.1-7-3.1 0-1.2 0-2.3z"/>
	</g>
	<g>
		<path fill-rule="evenodd" class="s223" d="m257.4 369.9q1.1 2.9 0.7 6.2-0.1 4.3-1.5 8.4-1.1 0-2.3 0 1.1-7.5 3.1-14.6z"/>
	</g>
	<g>
		<path fill-rule="evenodd" class="s224" d="m457.8 379.2q-2.5 2.1-6.2 1.5 2.5-2.2 6.2-1.5z"/>
	</g>
	<g>
		<path fill-rule="evenodd" class="s225" d="m513.8 368.4q1.2 0 2.3 0-4.3 5.7-9.2 11.1-1.6 1.7-3.8 2-5.3 3.4-10.8 6.9-1.8 1.1-3.8 0.7 9.1-6.4 18.4-13 3.9-3.6 6.9-7.7z"/>
	</g>
	<g>
		<path fill-rule="evenodd" class="s226" d="m431.7 379.2q9.5 1.2 19.2 1.5-0.2 0.7-0.8 1.1-5.8 0.8-11.5 0-3.9-0.8-6.9-2.6z"/>
	</g>
	<g>
		<path fill-rule="evenodd" class="s227" d="m539.1 379.2q0.8 0 1.6 0-1.1 3.2-4.6 3 0.7-2.3 3-3z"/>
	</g>
	<g>
		<path fill-rule="evenodd" class="s228" d="m294.2 378.4q2.2 2.5 1.6 6.1-2.2-2.4-1.6-6.1z"/>
	</g>
	<g>
		<path fill-rule="evenodd" class="s229" d="m387.1 380.7q5.4 3.4 10.8 6.9 1 1 0.7 2.3-4.1-2.6-8.4-5.4-2-1.6-3.1-3.8z"/>
	</g>
	<g>
		<path fill-rule="evenodd" class="s230" d="m295.8 384.5q1.9 0.8 1.5 3.1-0.8 0-1.5 0 0-1.5 0-3.1z"/>
	</g>
	<g>
		<path fill-rule="evenodd" class="s231" d="m536.1 382.2q0 1.6-1.6 1.6-5.9 3.1-11.5 6.9-1.1 1.7-3 2.3-1.2 0-2.4 0 0.4-0.8 0.8-1.6 7.4-3.9 14.2-8.4 1.7-0.7 3.5-0.8z"/>
	</g>
	<g>
		<path fill-rule="evenodd" class="s232" d="m534.5 383.8q-2.5 5.5-8.4 6.9-1.5 0-3.1 0 5.6-3.8 11.5-6.9z"/>
	</g>
	<g>
		<path fill-rule="evenodd" class="s233" d="m254.3 384.5q1.2 0 2.3 0-2.5 5.5-6.1 10.4-4.2 2.5-8.5 5-3.7 1.1-7.7 0.8 0-0.4 0-0.8 9.7-1.2 16.2-9.2 1.5-3.4 3.8-6.2z"/>
	</g>
	<g>
		<path fill-rule="evenodd" class="s234" d="m297.3 387.6q4 1.8 4.6 6.1-4.1-1.7-4.6-6.1z"/>
	</g>
	<g>
		<path fill-rule="evenodd" class="s235" d="m523 390.7q1.6 0 3.1 0-1 1.8-3.1 2.7 1 0.8 1.6 1.9-3.2 0.3-6.2-0.8 0.9-0.8 1.6-1.5 1.9-0.6 3-2.3z"/>
	</g>
	<g>
		<path fill-rule="evenodd" class="s236" d="m397.1 379.9q2.9 1.5 5.4 3.9 1.4 1 3.1 0.7 0.7 2 3 1.6 0.8 1.9 3.1 1.5 0.8 1.9 3.1 1.5 3.3 3.5 8.4 3.1 0.8 1.9 3.1 1.5 0.4 0 0.8 0 2.8 2.2 6.9 1.6 3.6 2.2 8.4 1.5 0.4 0 0.8 0 4.1 1.5 9.2 1.6 5-0.1 9.2-1.6 0.4 0 0.8 0 4.6 0.4 9.2-0.7 2.8-0.6 4.6-2.4 3 0.6 4.6-1.5 3 0.6 4.6-1.5 2.3 0.4 3.1-1.6 2 0.4 3.8-0.7 5.5-3.5 10.8-6.9 0.1 1.6-0.8 3-2.4 0.7-3.8 2.3-43.3 23.1-88.3 2.7-5.7-2.4-10.8-6.1-2.2-1.1-2.3-3.5z"/>
	</g>
	<g>
		<path fill-rule="evenodd" class="s237" d="m408.6 386.1q2.3-0.4 3.1 1.5-2.3 0.4-3.1-1.5z"/>
	</g>
	<g>
		<path fill-rule="evenodd" class="s238" d="m405.6 384.5q2.2-0.4 3 1.6-2.3 0.4-3-1.6z"/>
	</g>
	<g>
		<path fill-rule="evenodd" class="s239" d="m524.6 395.3q2.3-0.2 4.6 0.4 0.6 0.4 0.7 1.1-3.3 0.6-5.3-1.5z"/>
	</g>
	<g>
		<path fill-rule="evenodd" class="s240" d="m399.4 392.2q3.5 0.2 6.9 0.8 0 1.1 0 2.3 1.6 0 3.1 0 1.5 1.5 3.1 3.1-7.4-1.7-13.1-6.2z"/>
	</g>
	<g>
		<path fill-rule="evenodd" class="s241" d="m301.9 393.7q5.1 2.4 10 4.7-3.5 0.1-6.9-0.8-0.4 0-0.8 0-2-1.4-2.3-3.9z"/>
	</g>
	<g>
		<path fill-rule="evenodd" class="s242" d="m516.1 393q0.8 0 1.5 0 1.2 0 2.4 0-0.7 0.7-1.6 1.5 3 1.1 6.2 0.8 2 2.1 5.3 1.5 3 2 6.9 2.7 5.8 0.6 11.6 0.4 0.3 0 0.7 0 8 2.3 16.9 1.5 2.3 0 2.3 2.3 0 1.9 0 3.9 0 2.3-2.3 2.3-8.4 0-16.9 0-2.3 0-4.6 0 0-1.2 0-2.3 10.7 2.2 21.5 0.7 3.1-2.7 0-5.3-11.9-1-23.8-1.2-10-2.4-19.9-5.4-3.1-0.5-6.2-0.3 0-1.6 0-3.1z"/>
	</g>
	<g>
		<path fill-rule="evenodd" class="s243" d="m312.7 398.4q2.3-0.2 4.6 0.3 0.6 0.5 0.7 1.2-3.3 0.6-5.3-1.5z"/>
	</g>
	<g>
		<path fill-rule="evenodd" class="s244" d="m412.5 398.4q2.2-0.4 3 1.5-2.2 0.4-3-1.5z"/>
	</g>
	<g>
		<path fill-rule="evenodd" class="s245" d="m529.9 396.8q8.5 0.3 16.9 1.9 1.1 0.4 1.6 1.2-5.8 0.2-11.6-0.4-3.9-0.7-6.9-2.7z"/>
	</g>
	<g>
		<path fill-rule="evenodd" class="s246" d="m305 397.6q3.4 0.9 6.9 0.8 0.4 0 0.8 0 2 2.1 5.3 1.5 5.4-0.2 10.8 0.4 0.8 0.7 0.7 1.9-6.1 0.2-12.2-0.4-5.8-1.4-11.6-3.1-0.6-0.4-0.7-1.1z"/>
	</g>
	<g>
		<path fill-rule="evenodd" class="s247" d="m415.5 399.9q3-0.6 4.6 1.5-2.9 0.6-4.6-1.5z"/>
	</g>
	<g>
		<path fill-rule="evenodd" class="s248" d="m389.4 373.8q2.5 1.7 3.1 4.6 2.6 0.1 4.6 1.5 0.1 2.4 2.3 3.5 5.1 3.7 10.8 6.1 45 20.4 88.3-2.7 2.6 2.1 4.2 5.4 2.2-0.7 3.8-2.3 4.6 2 9.6 3.1 0 1.5 0 3.1 3.1-0.2 6.2 0.3 9.9 3 19.9 5.4 11.9 0.2 23.8 1.2 3.1 2.6 0 5.3-10.8 1.5-21.5-0.7-2.3 0-4.6 0-0.1-0.7-0.8-1.2-11.3-2.9-23-5-2.7 0-5.4 0-3.6-2.2-8.4-1.5-10.6 2.4-20.7 4.6-37.7 5.5-72.2-9.2-1.5 0-3.1 0 0-1.2 0-2.3-3.4-0.6-6.9-0.8 0.3-1.5-0.8-2.3 0.3-1.3-0.7-2.3-5.4-3.5-10.8-6.9-2.3-0.8-3-3.1-1.1-2 0-3.8 2.6-1.1 5.3 0z"/>
	</g>
	<g>
		<path fill-rule="evenodd" class="s249" d="m443.2 396.8q9.2 0 18.4 0-4.2 1.5-9.2 1.6-5.1-0.1-9.2-1.6z"/>
	</g>
	<g>
		<path fill-rule="evenodd" class="s250" d="m476.2 393.7q-1.8 1.8-4.6 2.4-4.6 1.1-9.2 0.7 0.1-0.7 0.7-1.1 6.8-0.4 13.1-2z"/>
	</g>
	<g>
		<path fill-rule="evenodd" class="s251" d="m434 395.3q3.8-0.2 7.6 0.4 0.7 0.4 0.8 1.1-4.8 0.7-8.4-1.5z"/>
	</g>
	<g>
		<path fill-rule="evenodd" class="s252" d="m427.1 393.7q4-0.6 6.9 1.6-4.1 0.6-6.9-1.6z"/>
	</g>
	<g>
		<path fill-rule="evenodd" class="s253" d="m480.8 392.2q-1.6 2.1-4.6 1.5 1.7-2 4.6-1.5z"/>
	</g>
	<g>
		<path fill-rule="evenodd" class="s254" d="m423.2 392.2q2.3-0.4 3.1 1.5-2.3 0.4-3.1-1.5z"/>
	</g>
	<g>
		<path fill-rule="evenodd" class="s255" d="m485.4 390.7q-1.6 2.1-4.6 1.5 1.6-2.1 4.6-1.5z"/>
	</g>
	<g>
		<path fill-rule="evenodd" class="s256" d="m414.8 389.1q3.7 1.2 7.6 2 0.7 0.4 0.8 1.1-5.1 0.4-8.4-3.1z"/>
	</g>
	<g>
		<path fill-rule="evenodd" class="s257" d="m488.5 389.1q-0.8 2-3.1 1.6 0.8-2 3.1-1.6z"/>
	</g>
	<g>
		<path fill-rule="evenodd" class="s258" d="m411.7 387.6q2.3-0.4 3.1 1.5-2.3 0.4-3.1-1.5z"/>
	</g>
	<g>
		<path fill-rule="evenodd" class="s259" d="m502.3 399.9q4.8-0.7 8.4 1.5-6.6 0.3-13 1.6 2.3-1.6 4.6-3.1z"/>
	</g>
	<g>
		<path fill-rule="evenodd" class="s260" d="m549.1 399.9q8.9-0.7 16.9 1.5-8.9 0.8-16.9-1.5z"/>
	</g>
	<g>
		<path fill-rule="evenodd" class="s261" d="m304.2 397.6q0.4 0 0.8 0 0.1 0.7 0.7 1.1 5.8 1.7 11.6 3.1 6.1 0.6 12.2 0.4 0 0.4 0 0.8 0 0.3 0 0.7-1 1.3-0.7 3.1-52.6 0-105.2 0 0-2.3 0-4.6 1.5 0 3.1 0 9 1.7 17.6-2.3 0.8 0.2 1.6 0.4-3.5 4.4 2.3 5 10.3-0.8 20.7-1.6 3.4 0.3 6.5 1.6 13.6-1.4 27.3-1.6-0.3-3.3 3-3.4-1.5-1-1.5-2.7z"/>
	</g>
	<g>
		<path fill-rule="evenodd" class="s262" d="m420.1 401.4q2.3-0.4 3.1 1.6-2.3 0.4-3.1-1.6z"/>
	</g>
	<g>
		<path fill-rule="evenodd" class="s263" d="m502.3 399.9q-2.3 1.5-4.6 3.1-3.7-0.7-6.2 1.5-5.2-0.3-9.9 1.5 0-0.7 0-1.5 10.1-2.2 20.7-4.6z"/>
	</g>
	<g>
		<path fill-rule="evenodd" class="s264" d="m329.5 403q3.1 2.3 0 4.6 0-2 0-3.9 0-0.4 0-0.7z"/>
	</g>
	<g>
		<path fill-rule="evenodd" class="s265" d="m424.7 403q3.4-0.6 5.4 1.5-3.3 0.6-5.4-1.5z"/>
	</g>
	<g>
		<path fill-rule="evenodd" class="s266" d="m497.7 403q-2.5 2.1-6.2 1.5 2.5-2.2 6.2-1.5z"/>
	</g>
	<g>
		<path fill-rule="evenodd" class="s267" d="m510.7 401.4q2.7 0 5.4 0 1.5 1.6 3.1 3.1-3.7-1.2-7.7-1.9-0.6-0.5-0.8-1.2z"/>
	</g>
	<g>
		<path fill-rule="evenodd" class="s268" d="m409.4 395.3q34.5 14.7 72.2 9.2 0 0.8 0 1.5-5 0-10 0 0 1.2 0 2.3-1.2 0-2.3 0-19.1-1.1-38.4-3.8-0.4 0-0.8 0-2-2.1-5.4-1.5-0.7 0-1.5 0-0.8-2-3.1-1.6-1.6-2.1-4.6-1.5-0.8-1.9-3-1.5-1.6-1.6-3.1-3.1z"/>
	</g>
	<g>
		<path fill-rule="evenodd" class="s269" d="m516.1 401.4q11.7 2.1 23 5 0.7 0.5 0.8 1.2-8.8-1.6-17.6-3.1-1.6 0-3.1 0-1.6-1.5-3.1-3.1z"/>
	</g>
	<g>
		<path fill-rule="evenodd" class="s270" d="m568.3 403.7q3.1 1.9 0 3.9 0-2 0-3.9z"/>
	</g>
	<g>
		<path fill-rule="evenodd" class="s271" d="m223.6 402.2q0 2.3 0 4.6 52.6 0 105.2 0-52.8 1.2-106 0.8-0.3-3 0.8-5.4z"/>
	</g>
	<g>
		<path fill-rule="evenodd" class="s272" d="m491.5 404.5q-4.2 1.9-9.2 3.5-5.3 0.5-10.7 0.3 0-1.1 0-2.3 5 0 10 0 4.7-1.8 9.9-1.5z"/>
	</g>
	<g>
		<path fill-rule="evenodd" class="s273" d="m430.9 404.5q19.3 2.7 38.4 3.8-9.2 0-18.4 0-6.2 0.2-12.3-0.3-4.2-1.4-7.7-3.5z"/>
	</g>
	<g>
		<path fill-rule="evenodd" class="s274" d="m234.3 399.9q0 0.4 0 0.8-3.2 2.1-7.6 1.5-1.6 0-3.1 0-1.1 2.4-0.8 5.4 53.2 0.4 106-0.8-0.3-1.8 0.7-3.1 0 1.9 0 3.9 0.1 1.1-0.7 1.9-13.1 0.6-26.1 0.4-27.3 0-54.5 0-12.7 0.4-25.4-0.8-3.2-4.8 0.8-8.8 5.4-0.6 10.7-0.4z"/>
	</g>
	<g>
		<path fill-rule="evenodd" class="s275" d="m450.9 408.3q9.2 0 18.4 0-0.5 0.9-1.6 1.2-7.3 0.8-14.5 0-1.5-0.3-2.3-1.2z"/>
	</g>
	<g>
		<path fill-rule="evenodd" class="s276" d="m522.3 404.5q8.8 1.5 17.6 3.1 2.3 0 4.6 0 0 1.1 0 2.3-7.8 0.1-15.3-1.9-3.9-1.6-6.9-3.5z"/>
	</g>
	<g>
		<path fill-rule="evenodd" class="s277" d="m248.2 409.9q27.2 0 54.5 0-1.3 0.9-3.1 1.1-10.7 0.2-21.5 0.4-15.2 0.2-29.9-1.5z"/>
	</g>
	<g>
		<path fill-rule="evenodd" class="s278" d="m549.1 409.9q8.5 0 16.9 0-0.3 1.1-1.5 1.5-7.1 0.1-14.6-0.4-0.6-0.4-0.8-1.1z"/>
	</g>
	<g>
		<path fill-rule="evenodd" class="s279" d="m684.2 483.6q6-1.2 4.3 4.6-8.9 6.2-18.5 11.5-0.7-1.2 0-2.3 7-7.2 14.2-13.8z"/>
	</g>
	<g>
		<path fill-rule="evenodd" class="s280" d="m34 500.5q11.6-0.2 22.2 4.2 11.8 11.2 0.8 23-5.1 2.9-10.8 4.2 9.5 17.9 20.8 34.6-5.7 1.1-11.5 0.8-1.2-7-5-13.1-6.7-10.5-12.7-21.5-4.9-1.1-10-0.8-0.2 15.8 0.4 31.5 0.5 1.8 1.9 3.1-5.7 1.5-11.5 0 0.6-1.2 1.2-2.3 0.7-29.6 0-59.1-0.6-1.2-1.2-2.3 7.8-1.6 15.4-2.3zm-6.2 2.3q0 13.8 0 27.6 8.9 0.5 17.7-1.1 6.2-2.1 8.8-8.1 2.6-9.6-5-15.7-7.3-3.5-15.3-3.5-2.9 1.1-6.2 0.8z"/>
	</g>
	<g>
		<path fill-rule="evenodd" class="s281" d="m534.5 500.5q12.2-0.5 23.1 5 5.1 4.3 4.6 11.1 0.6 7.9-6.2 11.9-4 2.1-8.4 3.1 10 1.1 17.3 8 7.2 11.7-2 21.9-6.2 4.3-13.8 5.4-15.3 0.9-30.7-0.4 1.5-1.6 1.9-3.8 0.8-28.1 0-56.1-0.4-2.2-1.9-3.8 8.2-1.6 16.1-2.3zm-6.9 2.3q0 13.8 0 27.6 7.7 0.2 15.4-0.4 18.6-6.3 8.4-23-7.9-5.4-17.6-5-2.8 1.1-6.2 0.8zm0 62.9q8.5 0.2 16.9-0.4 8-1.4 13.5-7.3 6.5-11.9-3.5-21.1-12.7-6-26.9-5 0 16.9 0 33.8z"/>
	</g>
	<g>
		<path fill-rule="evenodd" class="s282" d="m602.1 500.5q12.2-0.5 23 5 5.1 4.3 4.6 11.1-1 14-15.3 14.6 8.6 18.7 20.7 35.3-5.7 1.1-11.5 0.8-1.5-6.5-5-12.3-6.5-11.2-13-22.3-5.1-1.1-10.4-0.8-0.2 13.9 0.4 27.7 0 3.8 1.9 6.9-5.8 1.5-11.5 0 1.5-1.6 1.9-3.8 0.8-28.1 0-56.1-0.4-2.2-1.9-3.8 8.1-1.6 16.1-2.3zm-6.9 2.3q0 13.8 0 27.6 7.7 0.2 15.3-0.4 18.7-6.3 8.5-23-8-5.4-17.7-5-2.8 1.1-6.1 0.8z"/>
	</g>
	<g>
		<path fill-rule="evenodd" class="s283" d="m113.8 501.2q39.5 0.6 37.2 40-9.2 30.6-41 25.7-32.8-12.7-21.9-46.5 8.2-15.9 25.7-19.2zm-15 10q-15.4 26.9 6.6 48.8 14.7 11 29.9 0.7 15.9-19.4 4.2-41.8-9.4-16.9-28.8-15.4-6.9 2.1-11.9 7.7z"/>
	</g>
	<g>
		<path fill-rule="evenodd" class="s284" d="m188.3 501.2q18.3-3.3 27.6 12.3-1 4.5-3.1 8.5-2.9-6.2-6.5-12.3-11.1-12.5-24.5-2.3-5.3 6.8 0 13.8 2.4 2.5 4.9 5 10.4 5 20.8 10 14.8 12.3 3 27.6-22.6 11.1-39.5-8.1-1.7-5 0.8-9.9 0.8-1.1 1.9-0.4 4.8 10 13 17.6 10.4 6.9 20.8 0 6.9-6.9 1.1-14.9-3.7-4.5-8.8-7.3-8.8-3.3-16.9-7.7-15.8-13.5-1.5-28.4 3.4-2.1 6.9-3.5z"/>
	</g>
	<g>
		<path fill-rule="evenodd" class="s285" d="m262 501.2q19-2.1 30.7 12.7-0.8 4.4-3.1 8.1-4.7-9-13-15-24.9-11.1-34.2 15-5.9 26.5 17.3 40.3 27.1 8.6 36.4-18.1-2.3 18.1-20.3 22.7-31.4 4.9-41.1-25-3.9-32.3 27.3-40.7z"/>
	</g>
	<g>
		<path fill-rule="evenodd" class="s285" d="m343.4 501.2q18.3-1.4 30.7 11.9-1.3 4.5-3.1 8.9-6.3-10-16.1-16.5-23-7.1-31.1 15.7-1.3 4.1-1.2 8.4 16.7-0.3 33.1-3 0 4.2 0 8.4-16.8-3.2-33.8-3.8 1.4 29.8 30.7 33.8 19.3-1.9 24.2-20.8 1 0.7 1.1 1.9-6.7 21.2-29.2 21.9-30.8-2.6-33.7-33.4 2-27.2 28.4-33.4z"/>
	</g>
	<g>
		<path fill-rule="evenodd" class="s284" d="m742.6 501.2q15.3-2.5 25.7 8.5 1.1 2 1.9 4.2-1 3.6-1.9 7.3-0.5 0.5-1.1 0.8-3.6-10.1-11.5-17.3-13-5.8-21.2 5.7-1.7 11 8.1 16.6 11.1 4.7 21.5 10.7 11.8 12.8 0.8 26.1-18.2 9.5-34.6-3.1-3.9-3.2-6.1-7.6 0.8-3.3 1.9-6.6 0.5-1.6 1.9-1.1 4.7 9.4 12.3 16.9 9.8 7.5 20.7 1.5 6.8-5.4 3.5-13.4-2.9-4-6.5-7.3-9.5-4.9-19.2-9.2-14.5-10-6.6-25.8 4.4-4.7 10.4-6.9z"/>
	</g>
	<g>
		<path fill-rule="evenodd" class="s281" d="m396.3 502q5.9-0.4 11.6 0.8-1.5 1.6-2 3.8-0.5 29.6-0.3 59.1 16.6 2 30.7-6.9 1.1 4.6 0.7 9.2-20.3-0.5-40.7-1.5 0.6-1.2 1.2-2.3 0.8-29.6 0-59.1-0.9-1.5-1.2-3.1z"/>
	</g>
	<g>
		<path fill-rule="evenodd" class="s286" d="m454.7 502q6.2-0.4 12.3 0.8-1.2 1-1.9 2.3-0.8 29.5 0 59.1 0.7 1.3 1.9 2.3-6.2 1.5-12.3 0 1.2-1 1.9-2.3 0.8-29.2 0-58.4-0.9-2-1.9-3.8z"/>
	</g>
	<g>
		<path fill-rule="evenodd" class="s287" d="m674.3 502.8q4-1.2 8.4-0.8 8.7 27 18.1 53.7 1.9 5.9 5.7 10.8-6.1 1.3-12.3 0.4 0.6-12.2-7.3-21.9-7-7.7-17.2-5.8-2.1 0.9-3.5 2.7-3.1 9.2-6.1 18.5-1.1 3.4 1.1 6.1-4.2 1.5-8.4 0 4.2-2.8 5.7-7.7 9-25.6 17.3-51.4-0.1-2.7-1.5-4.6zm-6.9 34.9q12.4-2.8 21.1 6.5-5.1-16.4-10.8-33-0.4-0.6-1.1-0.8-3.8 14-9.2 27.3z"/>
	</g>
	<g>
		<path fill-rule="evenodd" class="s288" d="m372.5 629.4q7.9-0.4 12.3 5.8-0.4 0.6-0.7 1.2-5.6-6.4-13.9-4.3-10.1 5.5-6.5 16.5 8.8 12.6 19.6 2 1.3-0.9 2.3 0.3-6.6 8.6-16.9 5-7.9-3.8-7.7-12.6 0.9-11.2 11.5-13.9z"/>
	</g>
	<g>
		<path fill-rule="evenodd" class="s288" d="m575.2 629.4q7.3-1.1 11.5 4.7-0.3 0.3-0.7 0.7-6.9-5.6-14.2-0.7-2.5 4.1 1.1 7.2 5.7 1.6 11.5 2.4 6.7 4.6 1.6 11.1-7.2 4.3-14.6 0.4-2.7-6.5 2.3-0.8 5.6 2.5 10.7-0.8 5-5.1-1.5-8.4-6.8-0.3-12.7-3.5-3.5-8.6 5-12.3z"/>
	</g>
	<g>
		<path fill-rule="evenodd" class="s289" d="m177.5 630.2q2.3 11.1 1.6 23-1.2 0.2-2.3-0.3-8-8.1-16.2-15.8-0.7 9.6-1.5 19.2-0.8-0.6-1.1-1.5-0.2-2.5-0.4-5 1-5.6 0-11.1-0.1-3 1.5-5.4 8.5 8.5 17.7 16.1 0.2-9.5 0.7-19.2z"/>
	</g>
	<g>
		<path fill-rule="evenodd" class="s290" d="m203.6 630.2q1.5 1.4 1.6 3.9 1.2 6.1 0 12.2 1.9 12.9 13.8 7.3 1.4-1 1.9-2.7 0.2-10.3 1.2-20.7 1.7 11.3 0.3 22.3-4.8 6.2-12.6 4.2-3-1-5-3.5-1.7-11.4-1.2-23z"/>
	</g>
	<g>
		<path fill-rule="evenodd" class="s291" d="m245.1 630.2q9.2-0.4 18.4 0.8-3.8 0.8-7.7 1.5-1.7 47.6-2.6 0-4.5-0.4-8.1-2.3z"/>
	</g>
	<g>
		<path fill-rule="evenodd" class="s292" d="m286.6 630.2q6.1-0.2 12.2 0.4 8.4 3.9 5 12.7-1.9 2.1-4.2 3.8 2.6 4 4.6 8.5-0.4 0.3-0.8 0.7-3.4-4-6.1-8.8-4.9-0.9-9.6 0.4-0.2 4.2-1.1 8.4-1.6-13.1 0-26.1zm1.5 15q4.6 0.8 9.2 0 3.1-0.8 5-3.5 1.7-5.4-2.7-8.8-5.6-1.5-11.5-1.1-1.5 6.7 0 13.4z"/>
	</g>
	<g>
		<path fill-rule="evenodd" class="s293" d="m328.8 630.2q4.6-0.4 9.2 0.8-1.7 0.8-3.5 1.5-0.7 10.8 0 21.5 2.1 0.7 4.3 1.6-0.6 0.7-1.6 1.1-3.9 0-7.7 0.4-1.1-0.4-1.5-1.5 2.2-1.2 4.6-0.8 0.2-11.2-0.4-22.3-2.3-0.5-3.4-2.3z"/>
	</g>
	<g>
		<path fill-rule="evenodd" class="s293" d="m408.6 630.2q4.7-0.4 9.2 0.8-1.7 0.8-3.4 1.5-0.8 10.8 0 21.5 2.1 0.7 4.2 1.6-0.6 0.7-1.5 1.1-4 0-7.7 0.4-1.2-0.4-1.5-1.5 2.1-1.2 4.6-0.8 0.2-11.2-0.4-22.3-2.4-0.5-3.5-2.3z"/>
	</g>
	<g>
		<path fill-rule="evenodd" class="s289" d="m449.3 630.2q20.9-2 17.3 18.4-8.3 13.7-21.9 5-5.9-7.4-2.7-16.5 2.8-4.5 7.3-6.9zm-5 6.2q-4.6 9.3 2.7 16.5 10.1 5 17.3-3.5 4.9-17-12.7-17.6-4 1.4-7.3 4.6z"/>
	</g>
	<g>
		<path fill-rule="evenodd" class="s289" d="m510.7 630.2q2.3 11.1 1.6 23-1.2 0.2-2.3-0.3-7.9-8.1-16.2-15.8-0.7 9.6-1.5 19.2-0.8-0.6-1.1-1.5-0.2-2.5-0.4-5 1-5.6 0-11.1-0.1-3 1.5-5.4 8.5 8.5 17.7 16.1 0.2-9.5 0.7-19.2z"/>
	</g>
	<g>
		<path fill-rule="evenodd" class="s293" d="m536.1 630.2q5-0.4 10 0.8-1.8 0.8-3.5 1.5-0.6 11.1-0.4 22.3 8.7 0.7 0.4 2.3-2.8-0.9-5.4 0-0.8-0.6-1.1-1.5 2.1-0.9 4.2-1.6 0.8-10.3 0-20.7-2.3-1.4-4.2-3.1z"/>
	</g>
	<g>
		<path fill-rule="evenodd" class="s293" d="m609 630.2q8.9-0.4 17.7 0.8-3.7 0.8-7.3 1.5-0.2 11.9-1.2 23.8-0.8-10.4-1.5-20.7 1.9-2.2-0.8-3.5-4 0.1-6.9-1.9z"/>
	</g>
	<g>
		<path fill-rule="evenodd" class="s294" d="m658.9 631q2.5 1.5 3.5 4.6 4.1 10.1 8.8 20-0.4 0.3-0.8 0.7-1.6-1.6-3-3.4-8.1-0.8-16.2 0-1.4 1.3-2.3 3-0.9 0.8-1.5-0.3 5.8-12.4 11.5-24.6zm-6.9 18.8q3.6 1.3 7.7 1.1 3.4-0.3 6.9-0.7-3.3-8.1-7.7-15.4-3.3 7.6-6.9 15z"/>
	</g>
</svg>